<svg xmlns="http://www.w3.org/2000/svg" version="1.1" xlink="http://www.w3.org/1999/xlink" svgjs="http://svgjs.dev/svgjs" width="1440" height="560" preserveAspectRatio="none" viewBox="0 0 1440 560">
    <g mask="url(&quot;#SvgjsMask1011&quot;)" fill="none">
        <path d="M16.03 143.83L66.95 143.83L66.95 184.18L16.03 184.18z" fill="rgba(90, 245, 159, 0.4)"></path>
        <path d="M1241.23 25.46 a50.65 50.65 0 1 0 101.3 0 a50.65 50.65 0 1 0 -101.3 0z" fill="rgba(90, 245, 224, 0.4)"></path>
        <path d="M1244.69 453.41 a47.52 47.52 0 1 0 95.04 0 a47.52 47.52 0 1 0 -95.04 0z" fill="rgba(90, 245, 224, 0.4)"></path>
        <path d="M511.74 406.27L555.84 406.27L555.84 407.37L511.74 407.37z" fill="rgba(124, 134, 145, 0.4)"></path>
        <path d="M957.3 93.98L991.29 93.98L991.29 102.42L957.3 102.42z" fill="rgba(90, 245, 159, 0.4)"></path>
        <path d="M1375.36 405.31a49.11 49.11 0 1 0-36.2 91.3z" stroke="rgba(60, 115, 177, 0.4)"></path>
        <path d="M278.8 36.29L287.59 36.29L287.59 58.37L278.8 58.37z" fill="rgba(60, 115, 177, 0.4)"></path>
        <path d="M905.28 245.52L958.8 245.52L958.8 299.04L905.28 299.04z" fill="rgba(124, 134, 145, 0.4)"></path>
        <path d="M836.07 286.7a10.86 10.86 0 1 0-13.19 17.26z" stroke="rgba(60, 115, 177, 0.4)"></path>
        <path d="M600.22 137.85L605.59 137.85L605.59 143.22L600.22 143.22z" stroke="rgba(124, 134, 145, 0.4)"></path>
        <path d="M228.39 416.97 a42.23 42.23 0 1 0 84.46 0 a42.23 42.23 0 1 0 -84.46 0z" fill="rgba(90, 245, 224, 0.4)"></path>
        <path d="M1027.23 39.93L1044.54 39.93L1044.54 57.24L1027.23 57.24z" fill="rgba(90, 245, 224, 0.4)"></path>
        <path d="M462.92 263.56L499.87 263.56L499.87 300.51L462.92 300.51z" fill="rgba(60, 115, 177, 0.4)"></path>
        <path d="M176.82 42.8a21.67 21.67 0 1 0 37.58 21.58z" stroke="rgba(90, 245, 224, 0.4)"></path>
        <path d="M1079 148.61L1102.24 148.61L1102.24 171.85L1079 171.85z" fill="rgba(124, 134, 145, 0.4)"></path>
        <path d="M314.38 387.08a39.19 39.19 0 1 0-63.89 45.41z" stroke="rgba(60, 115, 177, 0.4)"></path>
        <path d="M430.53 86.7 a24.02 24.02 0 1 0 48.04 0 a24.02 24.02 0 1 0 -48.04 0z" fill="rgba(90, 245, 224, 0.4)"></path>
        <path d="M1057.52 116.44L1084.15 116.44L1084.15 143.07L1057.52 143.07z" stroke="rgba(90, 245, 224, 0.4)"></path>
        <path d="M38.05 16.15L43.21 16.15L43.21 67.26L38.05 67.26z" fill="rgba(90, 245, 159, 0.4)"></path>
        <path d="M692.95 318.65 a5.5 5.5 0 1 0 11 0 a5.5 5.5 0 1 0 -11 0z" fill="rgba(90, 245, 159, 0.4)"></path>
        <path d="M1115.62 338.77L1160.78 338.77L1160.78 345.33L1115.62 345.33z" stroke="rgba(124, 134, 145, 0.4)"></path>
        <path d="M1180.68 221.84L1215.15 221.84L1215.15 256.31L1180.68 256.31z" fill="rgba(90, 245, 159, 0.4)"></path>
        <path d="M151.66 230.74L176.83 230.74L176.83 255.91L151.66 255.91z" stroke="rgba(124, 134, 145, 0.4)"></path>
        <path d="M482.11 46.22 a11.3 11.3 0 1 0 22.6 0 a11.3 11.3 0 1 0 -22.6 0z" fill="rgba(124, 134, 145, 0.4)"></path>
        <path d="M1019.5 49.18 a43.59 43.59 0 1 0 87.18 0 a43.59 43.59 0 1 0 -87.18 0z" stroke="rgba(60, 115, 177, 0.4)"></path>
        <path d="M1274.95 64.04L1308.25 64.04L1308.25 97.34L1274.95 97.34z" fill="rgba(60, 115, 177, 0.4)"></path>
        <path d="M1113.49 187.11a45.67 45.67 0 1 0-91.28-3.29z" fill="rgba(90, 245, 224, 0.4)"></path>
        <path d="M757.87 154.29L782.92 154.29L782.92 169.79L757.87 169.79z" fill="rgba(90, 245, 159, 0.4)"></path>
        <path d="M231.49 510.09L284.23 510.09L284.23 560.22L231.49 560.22z" stroke="rgba(90, 245, 224, 0.4)"></path>
        <path d="M675.96 300.01L703.27 300.01L703.27 327.32L675.96 327.32z" stroke="rgba(124, 134, 145, 0.4)"></path>
        <path d="M877.28 588.55a43.15 43.15 0 1 0 51.67-69.12z" fill="rgba(90, 245, 159, 0.4)"></path>
        <path d="M545.59 260.15L566.61 260.15L566.61 281.17L545.59 281.17z" fill="rgba(124, 134, 145, 0.4)"></path>
        <path d="M1185.94 438.5 a15.58 15.58 0 1 0 31.16 0 a15.58 15.58 0 1 0 -31.16 0z" fill="rgba(124, 134, 145, 0.4)"></path>
        <path d="M827.36 171.93L863.57 171.93L863.57 200.15L827.36 200.15z" stroke="rgba(90, 245, 224, 0.4)"></path>
        <path d="M1102.47 575.97a44.75 44.75 0 1 0-61.74-64.79z" stroke="rgba(90, 245, 159, 0.4)"></path>
        <path d="M196.63 30.75 a43.24 43.24 0 1 0 86.48 0 a43.24 43.24 0 1 0 -86.48 0z" fill="rgba(90, 245, 224, 0.4)"></path>
        <path d="M326.54 194.18L364.4 194.18L364.4 232.04L326.54 232.04z" fill="rgba(90, 245, 159, 0.4)"></path>
        <path d="M48.7 389.74L100.81 389.74L100.81 441.85L48.7 441.85z" fill="rgba(90, 245, 224, 0.4)"></path>
        <path d="M614.52 461.09L666.66 461.09L666.66 513.23L614.52 513.23z" stroke="rgba(124, 134, 145, 0.4)"></path>
        <path d="M888.75 230.27 a31.9 31.9 0 1 0 63.8 0 a31.9 31.9 0 1 0 -63.8 0z" stroke="rgba(124, 134, 145, 0.4)"></path>
        <path d="M603.66 37.83a23.37 23.37 0 1 0 3.33 46.62z" fill="rgba(124, 134, 145, 0.4)"></path>
        <path d="M12.33 454.57L19.14 454.57L19.14 461.38L12.33 461.38z" fill="rgba(60, 115, 177, 0.4)"></path>
        <path d="M808.1 503.92L809.2 503.92L809.2 517.56L808.1 517.56z" stroke="rgba(124, 134, 145, 0.4)"></path>
        <path d="M521.67 409.51 a28.72 28.72 0 1 0 57.44 0 a28.72 28.72 0 1 0 -57.44 0z" fill="rgba(124, 134, 145, 0.4)"></path>
        <path d="M856.29 67.48L893.15 67.48L893.15 84.2L856.29 84.2z" stroke="rgba(60, 115, 177, 0.4)"></path>
        <path d="M439.62 506.92a3.62 3.62 0 1 0 5.11 5.13z" fill="rgba(90, 245, 224, 0.4)"></path>
        <path d="M653.4 533.79a21.64 21.64 0 1 0 25.95 34.64z" stroke="rgba(124, 134, 145, 0.4)"></path>
        <path d="M163.9 247.31L165.18 247.31L165.18 248.59L163.9 248.59z" fill="rgba(90, 245, 224, 0.4)"></path>
        <path d="M286.08 191.53a0.24 0.24 0 1 0-0.44 0.2z" stroke="rgba(60, 115, 177, 0.4)"></path>
        <path d="M205.54 170.53 a28.95 28.95 0 1 0 57.9 0 a28.95 28.95 0 1 0 -57.9 0z" stroke="rgba(60, 115, 177, 0.4)"></path>
        <path d="M123.07 203.89a54.39 54.39 0 1 0 18.5-107.2z" fill="rgba(124, 134, 145, 0.4)"></path>
        <path d="M632.96 419.27L639.86 419.27L639.86 426.17L632.96 426.17z" fill="rgba(90, 245, 159, 0.4)"></path>
        <path d="M512.96 105.99a46.11 46.11 0 1 0 8.99-91.78z" stroke="rgba(60, 115, 177, 0.4)"></path>
        <path d="M24.84 137.79 a5.52 5.52 0 1 0 11.04 0 a5.52 5.52 0 1 0 -11.04 0z" fill="rgba(90, 245, 159, 0.4)"></path>
        <path d="M55.44 163.72L72.67 163.72L72.67 180.95L55.44 180.95z" stroke="rgba(90, 245, 224, 0.4)"></path>
        <path d="M1019.12 535.46L1070.57 535.46L1070.57 586.91L1019.12 586.91z" stroke="rgba(124, 134, 145, 0.4)"></path>
        <path d="M463.69 354.36L501.47 354.36L501.47 370.54L463.69 370.54z" fill="rgba(124, 134, 145, 0.4)"></path>
        <path d="M714.73 480.47L767.07 480.47L767.07 532.81L714.73 532.81z" stroke="rgba(90, 245, 159, 0.4)"></path>
    </g>
    <defs>
        <mask id="SvgjsMask1011">
            <rect width="1440" height="560" fill="#ffffff"></rect>
        </mask>
    </defs>
</svg>