<?xml version="1.0" encoding="UTF-8"?>
<svg enable-background="new 0 0 1080 1080" version="1.1" viewBox="44.5 79.3 1012.8 781.7" xmlSpace="preserve" xmlns="http://www.w3.org/2000/svg" xmlnsXlink="http://www.w3.org/1999/xlink">
<defs>
<linearGradient id="a" x2="0%" y2="100%">
<stop stop-color="rgb(0 245 255 / 35%)/*rgb(255,255,0)*/" stop-opacity=".1" offset="0"/>
<stop stop-color="#f00" offset="1"/>
</linearGradient>
<filter id="b" x="-.032837" y="-.048661" width="1.0657" height="1.0973" color-interpolation-filters="sRGB">
<feGaussianBlur stdDeviation="11.471125"/>
</filter>
</defs>
<style type="text/css">.st0{fill: rgb(101, 218, 227);opacity: 0.1;}	.st1{fill:none;stroke:#D3D3D3;stroke-miterlimit:10;stroke-dasharray:12.1401,12.1401;}	.st2{fill:#F2F2F2;}	.st3{fill:#DCF2FF;opacity: 0.41;}	.st4{fill:#2A94F4;} .st4-pant{fill:#2f2e41;} .st4-windowhead{fill: #057dd5;opacity: 0.41;} .st4-shirt{fill:#e4e4e4;} .st4-leaf{fill:#0ada0a;}	.st5{fill:#FFFFFF;}	.st6{fill:#71d5fc;}	.st7{fill:#072C3D;}	.st8{fill:#FCD2B1;}	.st9-hair{fill:black;} .st9-shoetop{fill:#7F8DAA} .st9-shoebottom{fill:#b5b9c0}	.st10{fill:#FFE3CA;}	.st11{fill:none;stroke:#0E538C;stroke-width:2;stroke-miterlimit:10;}	.st12{fill:#267b08;}	.st13{fill:#2a94f4c4;}	.st14{fill:#CCE9FF;}</style>
<path d="m296.1 177.7c-23.9 10.4-47.6 23.2-64.3 43.2s-25.1 48.7-15 72.8c13.4 32.1 55.8 50.8 56 85.6 0.1 24.9-22.9 43.9-46.1 53s-48.9 12.3-70 25.6c-31.9 20-46.8 58.7-52.9 95.8-6.3 38.5-3.8 82.4 23.5 110.4 33.9 34.7 89.9 30.8 137.9 23.4 64-9.9 127.7-21.5 191.5-33.1 139.7-25.5 279.4-50.9 419-76.4 15-2.7 30.6-5.7 42.7-14.9 24.2-18.2 26.2-55.7 12.2-82.4-14-26.8-40-45-65.8-60.7s-53.1-30.6-72.4-53.9-28.9-57.7-14.3-84.1c12.4-22.4 39-34.4 50.6-57.2 15.3-30.1-2.3-68.5-30.1-87.7-27.9-19.4-376.4-14.6-502.5 40.6z" fill="#daf6f6ff" filter="url(#b)"/>
<circle class="st1" cx="224.7" cy="203.5" r="123.7"/>
<path class="st2" d="m1022.5 861h-965c-7.2 0-13-5.9-13-13v-77.5c0-7.2 5.9-13 13-13h965c7.2 0 13 5.9 13 13v77.5c0 7.1-5.9 13-13 13z"/>
<path class="st3" d="m900 215v351c0 6.6-5.4 12-12 12h-696c-6.6 0-12-5.4-12-12v-351c0-6.6 5.4-12 12-12h696c6.6 0 12 5.4 12 12z"/>
<path class="st4-windowhead" d="m900 215v25h-720v-25c0-6.6 5.4-12 12-12h696c6.6 0 12 5.4 12 12z"/>
<g transform="matrix(.57003 0 0 .60858 -244.13 112.15)">
<ellipse cx="786.91" cy="179.97" rx="14.911" ry="13.967" fill="#ff528e" stroke-width=".9621"/>
<ellipse cx="837.91" cy="179.97" rx="14.911" ry="13.967" fill="#ffd663" stroke-width=".9621"/>
<ellipse cx="888.91" cy="179.97" rx="14.911" ry="13.967" fill="#33eb7d" stroke-width=".9621"/>
</g>
<rect class="st5" x="202" y="264" width="252" height="19"/>
<rect class="st5" x="514" y="332" width="252" height="19"/>
<rect class="st5" x="202" y="366" width="454" height="19"/>
<rect class="st5" x="202" y="298" width="413" height="19"/>
<rect class="st6" x="468" y="264" width="105" height="19"/>
<rect class="st5" x="202" y="434" width="252" height="19"/>
<rect class="st6" x="468" y="434" width="105" height="19"/>
<rect class="st6" x="625" y="298" width="152" height="19"/>
<rect class="st6" x="203" y="400" width="182" height="19"/>
<rect class="st6" x="202" y="332" width="298" height="19"/>
<rect class="st7" x="467.7" y="756.4" width="152.6" height="35"/>
<path class="st8" d="m430.8 797.9c26 6.5 121.9 17.2 169.6 22.2 10.6 1.1 18.8 2 23.4 2.4 2.5 0.3 3.9 0.4 3.9 0.4s12.5-0.8 27.7-1.6c14-0.8 46.3-0.6 57.5-1 4.2-0.1 5.6-5.8 2-7.9-6.6-3.8-34.3-15.1-47.9-16.8-8.4-1-17.6-8.6-24.9-12.8-5.6-3.3-12 2.4-17.1 4.3-2.5 0.9-4.3 6.5-7.1 6.7-0.7 0.1-1.4 0.1-2.1 0.2-3.5 0.2-7.2 0-10.7-0.4-1-0.1-1.9-0.3-2.9-0.4-11.1-1.7-20.3-5.3-20.3-5.3-34-17.6-108.8-64.7-167-52.3-0.5 0.1-1 0.2-1.4 0.3-0.5 0.1-1 0.2-1.4 0.3-58.6 14.9-16.3 52.9 18.7 61.7z"/>
<path class="st4-pant" d="m430.8 797.9c26 6.5 121.9 17.2 169.6 22.2l8.7-50.3c-1.7-0.3-3.5-0.4-5.3-0.4-18.4-0.2-36.6-4-53.6-11.2-38.6-16.5-93.2-33.1-138.2-21.9-58.5 14.8-16.2 52.8 18.8 61.6z"/>
<path class="st9-shoebottom" d="m639.1 784c0-5 6-8 6-8l46.6 17.2 25.4 13.8 5 7-6 4.5-52-7.5-17-10-8-17z"/>
<path class="st9-shoetop" d="m615.7 794 8.1 28.5c2.5 0.3 3.9 0.4 3.9 0.4s12.5-0.8 27.7-1.6c14-0.8 46.3-0.6 57.5-1 4.2-0.1 5.6-5.8 2-7.9-6.6-3.8-34.3-15.1-47.9-16.8-8.4-1-17.6-8.6-24.9-12.8-5.6-3.3-12 2.4-17.1 4.3-2.5 0.9-4.3 6.5-7.1 6.7-0.8 0.2-1.5 0.2-2.2 0.2z"/>
<path class="st4-shirt" d="m650.3 625.3-6.3-46.6c-3.2-23.4-21.7-40.8-43.6-40.8h-42.4-22.2-42.4c-21.9 0-40.4 17.4-43.6 40.8l-6.3 46.6c-4.9 36.6 15.6 71.6 48.4 82.3l43.8 14.3c6.1 0 11.1-5.4 11.1-12 0 6.6 5 12 11.1 12l43.8-14.3c32.9-10.7 53.5-45.7 48.6-82.3z"/>
<ellipse class="st10" transform="matrix(.3569 -.9341 .9341 .3569 -84.947 864.6)" cx="585.5" cy="494" rx="9" ry="7.5"/>
<polygon class="st41" fill="url(#a)" points="644.1,600.4 631.4,750.7 464.7,745.1 454.2,600.4 " transform="translate(-2.5318279,0.31271828)"/>
<path class="st8" d="m528.4 523.3 5.5 33.4 0.4 0.8c5 10.6 20.2 10.1 24.5-0.8l4.5-33.9-34.9 0.5z"/>
<path class="st10" d="m585.3 480.5c0 42.5-17 50.9-37.9 50.9s-37.9-8.3-37.9-50.9c0-23.1 17-41.8 37.9-41.8 20.9-0.1 37.9 18.7 37.9 41.8z"/>
<path class="st9-hair" d="m524.8 469.9c17 9.3 35.5 15.9 54.6 19.5 7.5 1.4 24.9-7.5 29.6-13.4 5.1-6.3-14-6-18-13-5.7-9.9-11.4-22.9-21-29s-23.8-0.2-35 2c-10 2-13-1.4-21 5-6.6 5.3-10.7 15.7-13 23.8s0.7 25.3 9 27.2c2-12 6.8-15.1 9-21l5.8-1.1z"/>
<ellipse class="st10" transform="matrix(.9341 -.3569 .3569 .9341 -142.7 214.76)" cx="510.5" cy="494" rx="7.5" ry="9"/>
<path class="st11" d="m537.9 507h-19c-3.1 0-5.6-2.5-5.6-5.6v-5.7c0-3.1 2.5-5.6 5.6-5.6h19c3.1 0 5.6 2.5 5.6 5.6v5.7c0 3.1-2.5 5.6-5.6 5.6z"/>
<path class="st11" d="m575.9 507h-19c-3.1 0-5.6-2.5-5.6-5.6v-5.7c0-3.1 2.5-5.6 5.6-5.6h19c3.1 0 5.6 2.5 5.6 5.6v5.7c0 3.1-2.5 5.6-5.6 5.6z"/>
<path class="st11" d="m543.5 498.5c2.8-1.5 4.8-2.5 7.8 0"/>
<path class="st6" d="m626.4 768.8h-160.7c-4.9 0-9-4-9-9l-4.5-108.7c0-4.9 4-9 9-9h169.7c4.9 0 9 4 9 9l-4.5 108.7c-0.1 5-4.1 9-9 9z"/>
<circle class="st5" cx="545.7" cy="705.5" r="17"/>
<path class="st8" d="m674.3 797.9c-26 6.5-121.9 17.2-169.6 22.2-10.6 1.1-18.8 2-23.4 2.4-2.5 0.3-3.9 0.4-3.9 0.4s-12.5-0.8-27.7-1.6c-14-0.8-46.3-0.6-57.5-1-4.2-0.1-5.6-5.8-2-7.9 6.6-3.8 34.3-15.1 47.9-16.8 8.4-1 17.6-8.6 24.9-12.8 5.6-3.3 12 2.4 17.1 4.3 2.5 0.9 4.3 6.5 7.1 6.7 0.7 0.1 1.4 0.1 2.1 0.2 3.5 0.2 7.2 0 10.7-0.4 1-0.1 1.9-0.3 2.9-0.4 11.1-1.7 20.3-5.3 20.3-5.3 34-17.6 108.8-64.7 167-52.3 0.5 0.1 1 0.2 1.4 0.3 0.5 0.1 1 0.2 1.4 0.3 58.6 14.9 16.3 52.9-18.7 61.7z"/>
<path class="st4-pant" d="m674.3 797.9c-26 6.5-121.9 17.2-169.6 22.2l-8.7-50.3c1.7-0.3 3.5-0.4 5.3-0.4 18.4-0.2 36.6-4 53.6-11.2 38.6-16.5 93.2-33.1 138.2-21.9 58.5 14.8 16.2 52.8-18.8 61.6z"/>
<path class="st9-shoebottom" d="m466 784c0-5-6-8-6-8l-46.6 17.2-25.4 13.8-5 7 6 4.5 52-7.5 17-10 8-17z"/>
<path class="st9-shoetop" d="m489.4 794-8.1 28.5c-2.5 0.3-3.9 0.4-3.9 0.4s-12.5-0.8-27.7-1.6c-14-0.8-46.3-0.6-57.5-1-4.2-0.1-5.6-5.8-2-7.9 6.6-3.8 34.3-15.1 47.9-16.8 8.4-1 17.6-8.6 24.9-12.8 5.6-3.3 12 2.4 17.1 4.3 2.5 0.9 4.3 6.5 7.1 6.7 0.9 0.2 1.6 0.2 2.2 0.2z"/>
<path class="st6" d="m937 132h-198c-23.6 0-43 21.4-43 47.5 0 23.9 16.1 43.8 36.9 47l0.6 20.9 20.7-20.4h182.8c23.6 0 43-21.4 43-47.5s-19.3-47.5-43-47.5z"/>
<circle class="st5" cx="787" cy="181" r="15"/>
<circle class="st5" cx="838" cy="181" r="15"/>
<circle class="st5" cx="889" cy="181" r="15"/>
<circle class="st6" cx="220.5" cy="577.5" r="80.5"/>
<path class="st5" d="m164.8 582.5v-4.4c0-2.2 1.3-4.1 3.3-4.9l22.2-8.8c3.5-1.4 7.2 1.2 7.2 4.9 0 2.3-1.4 4.3-3.6 5l-17.9 6 17.9 6c2.2 0.7 3.6 2.7 3.6 5v0.1c0 3.7-3.8 6.3-7.2 4.9l-22.2-8.8c-1.9-0.9-3.3-2.8-3.3-5z"/>
<path class="st5" d="m232.4 550.9c3.4 0 5.6 3.5 4.1 6.6l-24.8 51.9c-0.8 1.6-2.4 2.6-4.1 2.6-3.4 0-5.6-3.5-4.1-6.6l24.8-51.9c0.8-1.6 2.4-2.6 4.1-2.6z"/>
<path class="st5" d="m247 586.4 17.9-6-17.9-6c-2.1-0.7-3.6-2.7-3.6-5v-0.1c0-3.7 3.8-6.3 7.2-4.9l22.2 8.8c2 0.8 3.3 2.7 3.3 4.9v4.4c0 2.2-1.3 4.1-3.3 4.9l-22.2 8.8c-3.5 1.4-7.2-1.2-7.2-4.9 0-2.2 1.5-4.2 3.6-4.9z"/>
<path class="st12" d="m974.7 714.1c-8.2-38.5-33.7-72.9-68-92.1 18.4 34.7 40.3 67.4 65.5 97.6l2.5-5.5z"/>
<path class="st4-leaf" d="m983.9 728.5c-32.7-45.7-49.1-102.9-45.6-159 21.2 51.8 37.2 105.7 47.7 160.6l-2.1-1.6z"/>
<path class="st12" d="m974.5 730.1c-1-28.1-2-56.5 2.4-84.3s14.6-55.3 33.5-76.2c2.9 57.6-11.1 115.9-39.6 166l3.7-5.5z"/>
<path class="st13" d="m975.9 732.6c-18.4-53.2-15.4-113.4 8.2-164.5 14.8 53.4 1.7 110-11.4 163.8l3.2 0.7z"/>
<path class="st4-leaf" d="m978.3 712.9c5.1-46.7 36.2-89.6 79-108.9-17.3 46.5-47 88.4-85.1 120.3l6.1-11.4z"/>
<path class="st14" d="m1022.4 704.7-5.3 90.6c0 4.4-3.6 7.9-7.9 7.9h-62.8c-4.4 0-7.9-3.6-7.9-7.9l-1.2-20.5-4.1-70.1c0-4.4 3.6-7.9 7.9-7.9h73.4c2.9 0 5.4 1.5 6.8 3.8 0.6 1.2 1.1 2.6 1.1 4.1z"/>
<path class="st14" d="m1022.4 704.7-5.3 90.6c0 4.4-3.6 7.9-7.9 7.9h-62.8c-4.4 0-7.9-3.6-7.9-7.9l-1.2-20.5c29.3-8.4 59.5-44.6 84-74.2 0.6 1.2 1.1 2.6 1.1 4.1z"/>
<path class="st12" d="m91.2 744.9c-5.4-25.2-22-47.7-44.5-60.3 12 22.7 26.4 44.1 42.9 63.9l1.6-3.6z"/>
<path class="st4-leaf" d="m97.2 754.3c-21.4-29.9-32.1-67.3-29.8-104 13.9 33.9 24.4 69.2 31.2 105.2l-1.4-1.2z"/>
<path class="st12" d="m91.1 755.4c-0.7-18.4-1.3-37 1.6-55.2s9.6-36.2 22-49.9c1.9 37.7-7.2 75.9-26 108.7l2.4-3.6z"/>
<path class="st13" d="M92,757c-12.1-34.8-10.1-74.3,5.4-107.7c9.7,34.9,1.1,72-7.5,107.2L92,757z"/>
<path class="st4-leaf" d="m93.6 744.1c3.3-30.5 23.7-58.7 51.7-71.3-11.4 30.5-30.8 57.9-55.7 78.8l4-7.5z"/>
<path class="st14" d="m122.4 738.7-3.5 59.3c0 2.9-2.3 5.2-5.2 5.2h-41.1c-2.9 0-5.2-2.3-5.2-5.2l-0.8-13.4-2.6-45.9c0-2.9 2.3-5.2 5.2-5.2h48.1c1.9 0 3.5 1 4.4 2.5 0.5 0.8 0.7 1.8 0.7 2.7z"/>
<path class="st14" d="m122.4 738.7-3.5 59.3c0 2.9-2.3 5.2-5.2 5.2h-41.1c-2.9 0-5.2-2.3-5.2-5.2l-0.8-13.4c19.2-5.5 39-29.2 55-48.6 0.6 0.8 0.8 1.8 0.8 2.7z"/>
</svg>
