<svg xmlns="http://www.w3.org/2000/svg" xmlns:xlink="http://www.w3.org/1999/xlink" version="1.1" x="0px" y="0px" style="enable-background:new 0 0 500 500;" xml:space="preserve" viewBox="74.1 94.48 364.81 311.04"><g id="OBJECTS">			<linearGradient id="_x3C_Path_x3E__00000053517450760595397690000015218066610120627132_" gradientUnits="userSpaceOnUse" x1="247.1331" y1="397.4539" x2="244.9994" y2="63.3337" gradientTransform="matrix(-1 0 0 1 500.778 0)">		<stop offset="0" style="stop-color:#3E51C9;stop-opacity:0.67"></stop>		<stop offset="0.2493" style="stop-color:#4153CA;stop-opacity:0.67"></stop>		<stop offset="0.3982" style="stop-color:#495BCC;stop-opacity:0.67"></stop>		<stop offset="0.5209" style="stop-color:#5768D0;stop-opacity:0.67"></stop>		<stop offset="0.6292" style="stop-color:#6B7AD6;stop-opacity:0.67"></stop>		<stop offset="0.7281" style="stop-color:#8692DD;stop-opacity:0.67"></stop>		<stop offset="0.8201" style="stop-color:#A6AFE6;stop-opacity:0.67"></stop>		<stop offset="0.9068" style="stop-color:#CCD1F1;stop-opacity:0.67"></stop>		<stop offset="0.9872" style="stop-color:#F7F8FD;stop-opacity:0.67"></stop>		<stop offset="1" style="stop-color:#FFFFFF;stop-opacity:0.67"></stop>	</linearGradient>			<path id="_x3C_Path_x3E__00000098192004759918720970000006433018129341334684_" style="opacity:0.7;fill:url(#_x3C_Path_x3E__00000053517450760595397690000015218066610120627132_);" d="   M362.033,354.869c13.721,0,69.153-23.855,48.203-68.329c-18.246-38.732-46.698-25.35-34.69-83.612   c6.777-32.882-27.375-69.162-64.488-47.588c-20.956,12.182-62.264,27.13-82.718-3.176c-32.237-47.765-101.219-48.509-123.412,4.736   c-23.767,57.02,37.7,71.138,14.845,98.486c-8.434,10.093-18.746,14.857-25.696,50.678c-4.905,25.278,22.921,45.641,47.823,46.395   L362.033,354.869z"></path>	<g>		<path style="opacity:0.2;fill:#CCF2FF;" d="M83.927,206.597c0,2.714-2.201,4.915-4.915,4.915c-2.715,0-4.915-2.201-4.915-4.915    c0-2.715,2.2-4.915,4.915-4.915C81.727,201.682,83.927,203.882,83.927,206.597z"></path>		<path style="fill:#CCF2FF;" d="M423.534,256.869c0,1.491-1.209,2.7-2.7,2.7c-1.491,0-2.7-1.209-2.7-2.7c0-1.491,1.209-2.7,2.7-2.7    C422.326,254.169,423.534,255.378,423.534,256.869z"></path>		<path style="fill:#B1E5F2;" d="M309.243,117.088h-2.904v-2.902c0-0.633-0.515-1.148-1.149-1.148c-0.634,0-1.148,0.514-1.148,1.148    v2.902h-2.902c-0.634,0-1.149,0.515-1.149,1.148c0,0.634,0.515,1.149,1.149,1.149h2.902v2.903c0,0.634,0.515,1.148,1.148,1.148    c0.634,0,1.149-0.515,1.149-1.148v-2.903h2.904c0.634,0,1.149-0.515,1.149-1.149C310.391,117.603,309.877,117.088,309.243,117.088    z"></path>		<path style="fill:#B1E5F2;" d="M203.602,142.81h-4.405v-4.403c0-0.961-0.781-1.741-1.743-1.741c-0.961,0-1.742,0.78-1.742,1.741    v4.403h-4.402c-0.961,0-1.743,0.781-1.743,1.742c0,0.962,0.781,1.743,1.743,1.743h4.402v4.404c0,0.961,0.781,1.742,1.742,1.742    c0.962,0,1.743-0.781,1.743-1.742v-4.404h4.405c0.962,0,1.742-0.781,1.742-1.743C205.344,143.59,204.564,142.81,203.602,142.81z"></path>		<path style="fill:#CCF2FF;" d="M82.991,280.707c0,1.729-1.402,3.131-3.131,3.131c-1.729,0-3.132-1.402-3.132-3.131    c0-1.729,1.402-3.131,3.132-3.131C81.59,277.576,82.991,278.978,82.991,280.707z"></path>		<path style="opacity:0.2;fill:#CCF2FF;" d="M408.849,155.736c0,2.714-2.2,4.915-4.915,4.915c-2.715,0-4.915-2.2-4.915-4.915    c0-2.715,2.201-4.915,4.915-4.915C406.649,150.821,408.849,153.021,408.849,155.736z"></path>		<path style="opacity:0.2;fill:#CCF2FF;" d="M236.876,102.649h-5.858v-5.855c0-1.278-1.039-2.316-2.318-2.316    c-1.278,0-2.316,1.038-2.316,2.316v5.855h-5.854c-1.278,0-2.317,1.038-2.317,2.316c0,1.279,1.039,2.317,2.317,2.317h5.854v5.856    c0,1.279,1.038,2.317,2.316,2.317c1.279,0,2.318-1.038,2.318-2.317v-5.856h5.858c1.28,0,2.317-1.038,2.317-2.317    C239.193,103.688,238.155,102.649,236.876,102.649z"></path>	</g>	<g>					<linearGradient id="SVGID_00000124875887151059744160000017688601012021393802_" gradientUnits="userSpaceOnUse" x1="322.6377" y1="395.5162" x2="384.2184" y2="395.5162">			<stop offset="0.0308" style="stop-color:#00006A"></stop>			<stop offset="1" style="stop-color:#00006A"></stop>		</linearGradient>		<path style="opacity:0.3;fill:url(#SVGID_00000124875887151059744160000017688601012021393802_);" d="M384.218,395.516    c0,2.869-13.785,5.195-30.79,5.195c-17.005,0-30.79-2.326-30.79-5.195c0-2.869,13.785-5.195,30.79-5.195    C370.433,390.322,384.218,392.647,384.218,395.516z"></path>					<linearGradient id="SVGID_00000124160079171560840120000002235949662874991011_" gradientUnits="userSpaceOnUse" x1="99.8411" y1="397.7441" x2="202.7743" y2="397.7441">			<stop offset="0.0308" style="stop-color:#00006A"></stop>			<stop offset="1" style="stop-color:#00006A"></stop>		</linearGradient>					<ellipse style="opacity:0.3;fill:url(#SVGID_00000124160079171560840120000002235949662874991011_);" cx="151.308" cy="397.744" rx="51.467" ry="7.778"></ellipse>					<linearGradient id="SVGID_00000118358872670069751080000010418184450004476853_" gradientUnits="userSpaceOnUse" x1="110.6637" y1="365.2006" x2="394.7075" y2="365.2006">			<stop offset="0.0308" style="stop-color:#00006A"></stop>			<stop offset="1" style="stop-color:#00006A"></stop>		</linearGradient>					<ellipse style="opacity:0.3;fill:url(#SVGID_00000118358872670069751080000010418184450004476853_);" cx="252.686" cy="365.201" rx="142.022" ry="16.834"></ellipse>	</g>	<g>					<linearGradient id="_x3C_Path_x3E__00000029766536417769873260000011803613548979217294_" gradientUnits="userSpaceOnUse" x1="119.0675" y1="184.7758" x2="199.5747" y2="184.7758" gradientTransform="matrix(0.7063 0.7079 -0.7079 0.7063 158.4199 -51.839)">			<stop offset="0" style="stop-color:#D6E5FF"></stop>			<stop offset="0.306" style="stop-color:#DEEAFF"></stop>			<stop offset="1" style="stop-color:#ECF3FF"></stop>		</linearGradient>					<path id="_x3C_Path_x3E__00000038402885405907841420000010402147086606555537_" style="fill:url(#_x3C_Path_x3E__00000029766536417769873260000011803613548979217294_);" d="    M130.123,228.814l1.468-3.146c0.733-1.57,2.399-2.528,4.114-2.277c2.274,0.332,4.556,0.41,6.807,0.249    c1.757-0.126,3.372,0.968,3.975,2.623l1.298,3.569c0.755,2.075,3.049,3.146,5.124,2.391l4.462-1.622    c2.075-0.755,3.146-3.049,2.391-5.125l-1.374-3.777c-0.599-1.646-0.109-3.522,1.28-4.589c1.894-1.456,3.638-3.136,5.184-5.025    c1.137-1.389,3.1-1.781,4.727-1.022l2.779,1.297c2.001,0.934,4.381,0.068,5.314-1.933l2.007-4.302    c0.934-2.001,0.069-4.38-1.933-5.314l-3.58-1.67c-1.564-0.73-2.445-2.377-2.279-4.095c0.189-1.957,0.193-3.913,0.021-5.844    c-0.152-1.701,0.721-3.326,2.265-4.056l4.8-2.268c1.997-0.944,2.851-3.327,1.907-5.324l-2.029-4.292    c-0.943-1.997-3.327-2.85-5.324-1.907l-3.734,1.764c-1.656,0.782-3.643,0.35-4.791-1.077c-1.079-1.342-2.274-2.604-3.579-3.769    c-1.294-1.154-1.633-3.046-0.9-4.617l1.468-3.147c0.934-2.001,0.068-4.38-1.933-5.314l-4.302-2.007    c-2.001-0.934-4.38-0.068-5.314,1.933l-1.458,3.126c-0.737,1.58-2.413,2.546-4.139,2.297c-1.302-0.188-2.606-0.293-3.905-0.318    c-1.856-0.035-3.427-1.379-3.795-3.198l-0.557-2.752c-0.438-2.165-2.548-3.564-4.712-3.126l-4.653,0.942    c-2.164,0.438-3.564,2.548-3.126,4.712l0.86,4.25c0.334,1.648-0.418,3.298-1.834,4.204c-1.98,1.269-3.829,2.762-5.503,4.467    c-1.208,1.23-3.035,1.615-4.597,0.886l-3.584-1.672c-2.001-0.934-4.381-0.069-5.314,1.933l-2.007,4.302    c-0.934,2.001-0.068,4.381,1.933,5.314l2.779,1.297c1.627,0.759,2.587,2.517,2.253,4.281c-0.452,2.386-0.62,4.788-0.522,7.162    c0.072,1.744-1.048,3.318-2.688,3.915l-3.842,1.397c-2.075,0.755-3.146,3.049-2.391,5.125l1.622,4.462    c0.755,2.075,3.049,3.146,5.125,2.391l3.601-1.31c1.657-0.603,3.535-0.066,4.566,1.364c1.328,1.842,2.862,3.553,4.589,5.092    c1.294,1.154,1.629,3.046,0.896,4.617l-1.467,3.144c-0.934,2.001-0.069,4.38,1.933,5.314l4.302,2.007    C126.81,231.68,129.189,230.815,130.123,228.814z M121.178,183.052c4.923-10.552,17.469-15.114,28.021-10.191    c10.552,4.924,15.114,17.469,10.191,28.02c-4.923,10.552-17.469,15.114-28.021,10.191    C120.817,206.149,116.254,193.604,121.178,183.052z"></path>					<linearGradient id="_x3C_Path_x3E__00000098214088176640182150000005605928609199615417_" gradientUnits="userSpaceOnUse" x1="335.2966" y1="81.8339" x2="384.0815" y2="81.8339" gradientTransform="matrix(0.6639 0.7478 -0.7478 0.6639 180.483 -172.3289)">			<stop offset="0" style="stop-color:#D6E5FF"></stop>			<stop offset="0.306" style="stop-color:#DEEAFF"></stop>			<stop offset="1" style="stop-color:#ECF3FF"></stop>		</linearGradient>					<path id="_x3C_Path_x3E__00000115472317326137861090000011019343281715413156_" style="fill:url(#_x3C_Path_x3E__00000098214088176640182150000005605928609199615417_);" d="    M369.602,171.313l-0.723-1.981c-0.361-0.989-0.058-2.116,0.786-2.747c1.119-0.836,2.131-1.784,3.028-2.821    c0.7-0.81,1.863-1.035,2.834-0.584l2.092,0.973c1.217,0.566,2.661,0.038,3.227-1.178l1.217-2.615    c0.566-1.217,0.038-2.661-1.178-3.227l-2.214-1.03c-0.965-0.449-1.561-1.464-1.425-2.52c0.187-1.439,0.212-2.91,0.063-4.386    c-0.11-1.085,0.564-2.098,1.589-2.471l1.75-0.639c1.26-0.46,1.909-1.855,1.449-3.115l-0.989-2.71    c-0.46-1.26-1.855-1.909-3.115-1.449l-2.255,0.823c-0.985,0.36-2.071,0.032-2.739-0.777c-0.76-0.921-1.6-1.762-2.504-2.517    c-0.797-0.664-1.121-1.737-0.772-2.715l1.084-3.038c0.451-1.264-0.208-2.654-1.471-3.105l-2.717-0.969    c-1.264-0.451-2.653,0.208-3.104,1.472l-0.843,2.363c-0.374,1.048-1.413,1.717-2.519,1.598c-1.041-0.112-2.096-0.139-3.157-0.078    c-1.052,0.061-2.011-0.605-2.372-1.594l-0.723-1.982c-0.46-1.26-1.855-1.909-3.115-1.449l-2.71,0.989    c-1.26,0.46-1.909,1.855-1.449,3.115l0.719,1.968c0.363,0.995,0.06,2.13-0.788,2.766c-0.64,0.479-1.244,0.995-1.813,1.543    c-0.811,0.783-2.063,0.882-3.004,0.26l-1.422-0.941c-1.119-0.74-2.626-0.434-3.367,0.685l-1.592,2.405    c-0.74,1.119-0.434,2.626,0.685,3.367l2.197,1.454c0.852,0.564,1.239,1.595,1.021,2.593c-0.304,1.396-0.455,2.832-0.44,4.284    c0.011,1.048-0.607,1.998-1.592,2.357l-2.257,0.824c-1.26,0.46-1.909,1.855-1.449,3.115l0.989,2.71    c0.46,1.26,1.855,1.909,3.115,1.449l1.75-0.639c1.025-0.374,2.192-0.033,2.808,0.868c0.832,1.218,1.794,2.321,2.857,3.298    c0.781,0.717,0.978,1.874,0.53,2.836l-1.047,2.252c-0.566,1.216-0.039,2.661,1.178,3.227l2.615,1.217    c1.217,0.566,2.661,0.038,3.227-1.178l0.982-2.111c0.452-0.971,1.489-1.549,2.546-1.379c1.362,0.219,2.756,0.293,4.159,0.212    c1.051-0.061,2.009,0.607,2.37,1.596l0.723,1.98c0.46,1.26,1.855,1.909,3.115,1.449l2.71-0.989    C369.414,173.968,370.062,172.573,369.602,171.313z M346.082,155.524c-2.426-6.645,0.995-13.999,7.64-16.425    s13.999,0.995,16.425,7.64c2.426,6.645-0.995,13.999-7.64,16.425C355.861,165.59,348.507,162.169,346.082,155.524z"></path>					<linearGradient id="SVGID_00000136390054654625590620000012663185092100059019_" gradientUnits="userSpaceOnUse" x1="345.5244" y1="245.0413" x2="253.5207" y2="155.6634" gradientTransform="matrix(-0.9203 0.3911 0.3911 0.9203 588.3756 -54.83)">			<stop offset="0" style="stop-color:#1A2E9D"></stop>			<stop offset="0.1973" style="stop-color:#3754B3"></stop>			<stop offset="0.5806" style="stop-color:#6B97DA"></stop>			<stop offset="0.8583" style="stop-color:#8CC2F2"></stop>			<stop offset="1" style="stop-color:#98D2FC"></stop>		</linearGradient>		<path style="fill:url(#SVGID_00000136390054654625590620000012663185092100059019_);" d="M362.697,280.21l34.291-60.141    c-5.605-6.154-6.711-14.003-1.945-22.362c4.252-7.457,12.227-11.452,20.253-10.994c1.533,0.088,2.407,1.814,1.646,3.148    l-9.02,15.819c-0.668,1.172-0.26,2.664,0.912,3.332l7.323,4.175c1.239,0.707,2.817,0.275,3.524-0.964l8.911-15.629    c0.779-1.367,2.76-1.496,3.633-0.187c4.893,7.346,5.129,17.36-0.641,25.187c-4.488,6.086-10.67,9.408-18.836,7.578l-34.291,60.141    c5.605,6.154,6.711,14.003,1.945,22.362c-4.252,7.457-12.227,11.452-20.253,10.994c-1.533-0.088-2.407-1.814-1.646-3.148    l9.02-15.82c0.668-1.172,0.26-2.664-0.912-3.332l-7.323-4.175c-1.239-0.707-2.817-0.275-3.524,0.965l-8.911,15.629    c-0.78,1.367-2.76,1.496-3.633,0.187c-4.893-7.345-5.129-17.36,0.641-25.187C348.349,281.701,354.531,278.379,362.697,280.21z"></path>	</g>	<g>		<g id="_x3C_Group_x3E_">							<linearGradient id="_x3C_Path_x3E__00000022521095005757786150000014977954646341785474_" gradientUnits="userSpaceOnUse" x1="-80.1056" y1="338.7865" x2="80.6437" y2="338.7865" gradientTransform="matrix(-0.8908 -0.4544 -0.341 0.6685 253.2776 54.7599)">				<stop offset="0" style="stop-color:#1A2E9D"></stop>				<stop offset="0.1973" style="stop-color:#3754B3"></stop>				<stop offset="0.5806" style="stop-color:#6B97DA"></stop>				<stop offset="0.8583" style="stop-color:#8CC2F2"></stop>				<stop offset="1" style="stop-color:#98D2FC"></stop>			</linearGradient>			<path id="_x3C_Path_x3E_" style="fill:url(#_x3C_Path_x3E__00000022521095005757786150000014977954646341785474_);" d="     M216.352,309.686c0,0-68.387,4.029-85.045-43.984c-11.527-33.222-27.913-40.864-38.041-38.16     c-15.694,4.19-20.245,57.354,68.364,101.613C234.596,365.601,216.352,309.686,216.352,309.686z"></path>			<g id="_x3C_Path_x3E__00000094618730640875664120000012230672624037883533_">				<path id="_x3C_Path_x3E__00000036933167440679539310000005649388798774270879_" style="fill:#1A2E9D;" d="M181.307,323.257      c1.604,0.618,3.231,1.213,4.893,1.787c0.204,0.07,0.427-0.038,0.497-0.242c0.07-0.204-0.046-0.405-0.242-0.497      c-33.728-11.649-55.346-32.836-67.538-48.557c-13.208-17.031-18.502-31.476-18.553-31.62c-0.073-0.204-0.297-0.308-0.499-0.235      c-0.203,0.073-0.308,0.297-0.235,0.499c0.053,0.145,5.388,14.706,18.67,31.834C129.957,291.258,150.185,311.26,181.307,323.257z      "></path>			</g>		</g>		<g id="_x3C_Group_x3E__00000075844678085420914090000009639731907470735273_">							<linearGradient id="_x3C_Path_x3E__00000090973514983118520290000005032140606610978710_" gradientUnits="userSpaceOnUse" x1="-521.4617" y1="-251.3823" x2="-450.1797" y2="-223.0584" gradientTransform="matrix(-0.64 -0.7683 0.5985 -0.4985 -44.945 -169.0437)">				<stop offset="0" style="stop-color:#1A2E9D"></stop>				<stop offset="0.1973" style="stop-color:#3754B3"></stop>				<stop offset="0.5806" style="stop-color:#6B97DA"></stop>				<stop offset="0.8583" style="stop-color:#8CC2F2"></stop>				<stop offset="1" style="stop-color:#98D2FC"></stop>			</linearGradient>							<path id="_x3C_Path_x3E__00000112609789888543870540000004037482106304096925_" style="fill:url(#_x3C_Path_x3E__00000090973514983118520290000005032140606610978710_);" d="     M156.671,345.783c0,0-4.276-8.61-39.541-15.845c-29.903-6.136-38.24-12.342-36.48-24.703     c3.028-21.263,55.021-10.255,90.407,39.113C183.847,362.192,156.671,345.783,156.671,345.783z"></path>			<g id="_x3C_Path_x3E__00000015319717345469308730000013832850503135281031_">				<path id="_x3C_Path_x3E__00000114058869728514435250000014079184251875363222_" style="fill:#1A2E9D;" d="M170.447,354.672      c0.107,0.009,0.222-0.034,0.318-0.131c0.181-0.18,0.223-0.479,0.093-0.669c-30.056-43.77-75.763-45.949-76.215-45.978      c-0.22-0.008-0.429,0.197-0.467,0.458c-0.039,0.262,0.097,0.475,0.327,0.488c0.462,0.011,45.84,2.203,75.699,45.686      C170.264,354.616,170.352,354.664,170.447,354.672z"></path>			</g>		</g>	</g>			<linearGradient id="SVGID_00000018950458274308665280000010144767963486354567_" gradientUnits="userSpaceOnUse" x1="92.3131" y1="355.052" x2="424.1323" y2="355.052">		<stop offset="0" style="stop-color:#93FFFF"></stop>		<stop offset="1" style="stop-color:#98D2FC"></stop>	</linearGradient>			<line style="fill:none;stroke:url(#SVGID_00000018950458274308665280000010144767963486354567_);stroke-miterlimit:10;" x1="92.313" y1="355.052" x2="424.132" y2="355.052"></line>	<g>		<g>							<linearGradient id="_x3C_Rectangle_x3E__00000087376476029425409760000013612988525473610399_" gradientUnits="userSpaceOnUse" x1="194.1819" y1="338.7586" x2="361.4087" y2="162.6886">				<stop offset="0" style="stop-color:#D6E5FF"></stop>				<stop offset="0.2471" style="stop-color:#DEEAFF"></stop>				<stop offset="0.8074" style="stop-color:#ECF3FF"></stop>			</linearGradient>							<path id="_x3C_Rectangle_x3E__00000139992963100842699270000010933521496640963004_" style="fill:url(#_x3C_Rectangle_x3E__00000087376476029425409760000013612988525473610399_);" d="     M364.091,369.276h-222.81c-5.75,0-10.411-4.661-10.411-10.411V195.458c0-5.75,4.661-10.411,10.411-10.411h222.81     c5.75,0,10.411,4.661,10.411,10.411v163.407C374.502,364.615,369.841,369.276,364.091,369.276z"></path>							<linearGradient id="_x3C_Rectangle_x3E__00000010280868398668995840000015952124612360396950_" gradientUnits="userSpaceOnUse" x1="173.8223" y1="215.5346" x2="374.3236" y2="198.3065" gradientTransform="matrix(-1 0 0 1 567.6566 0)">				<stop offset="0" style="stop-color:#3A49C7"></stop>				<stop offset="1" style="stop-color:#25287B"></stop>			</linearGradient>							<path id="_x3C_Rectangle_x3E__00000017511330452097402370000008952645455034994093_" style="fill:url(#_x3C_Rectangle_x3E__00000010280868398668995840000015952124612360396950_);" d="     M130.869,220.911h243.633v-25.453c0-5.75-4.661-10.411-10.411-10.411h-222.81c-5.75,0-10.411,4.661-10.411,10.411V220.911z"></path>			<path style="fill:#F7F5FC;" d="M359.692,203.569c0,1.539-1.248,2.787-2.787,2.787c-1.539,0-2.787-1.248-2.787-2.787     c0-1.539,1.248-2.787,2.787-2.787C358.444,200.782,359.692,202.03,359.692,203.569z"></path>			<path style="fill:#F7F5FC;" d="M348.855,203.569c0,1.539-1.248,2.787-2.787,2.787c-1.539,0-2.787-1.248-2.787-2.787     c0-1.539,1.248-2.787,2.787-2.787C347.607,200.782,348.855,202.03,348.855,203.569z"></path>			<path style="fill:#F7F5FC;" d="M338.07,203.569c0,1.539-1.248,2.787-2.787,2.787c-1.539,0-2.787-1.248-2.787-2.787     c0-1.539,1.248-2.787,2.787-2.787C336.822,200.782,338.07,202.03,338.07,203.569z"></path>		</g>		<g>			<path style="opacity:0.2;" d="M326.077,259.466c-0.39-0.39-0.788-0.769-1.191-1.141c-0.053-0.049-0.107-0.098-0.16-0.146     c-0.133-0.122-0.271-0.238-0.405-0.357c-0.217-0.192-0.434-0.385-0.654-0.573c-0.111-0.094-0.222-0.188-0.334-0.281     c-0.153-0.127-0.308-0.251-0.463-0.375c-0.148-0.119-0.296-0.238-0.446-0.355c-0.174-0.136-0.349-0.271-0.524-0.404     c-0.155-0.117-0.31-0.235-0.466-0.35c-0.089-0.065-0.18-0.126-0.27-0.19c-0.242-0.174-0.486-0.347-0.732-0.516     c-0.265-0.182-0.532-0.361-0.802-0.536c-0.214-0.139-0.429-0.276-0.646-0.411c-0.051-0.032-0.102-0.064-0.153-0.096     c-0.256-0.158-0.513-0.315-0.773-0.467c-0.154-0.09-0.308-0.178-0.463-0.266c-0.018-0.01-0.037-0.02-0.055-0.03     c-0.01-0.005-0.019-0.011-0.029-0.016c-0.031-0.018-0.064-0.035-0.095-0.052c-0.318-0.178-0.635-0.356-0.957-0.526     c-0.18-0.094-0.362-0.182-0.543-0.274c-0.359-0.182-0.718-0.365-1.083-0.535c-0.001,0-0.001,0-0.001-0.001h0     c-0.305-0.143-0.615-0.275-0.924-0.41c-0.078-0.034-0.156-0.07-0.234-0.104c-0.342-0.146-0.686-0.286-1.033-0.423     c-0.171-0.068-0.342-0.133-0.514-0.198c-0.327-0.124-0.654-0.247-0.985-0.362c-0.211-0.074-0.426-0.141-0.638-0.211     c-0.503-0.166-1.009-0.322-1.52-0.467c-0.274-0.078-0.548-0.155-0.823-0.228c-0.265-0.069-0.532-0.136-0.799-0.199     c-0.323-0.077-0.647-0.149-0.973-0.218c-0.223-0.047-0.445-0.098-0.669-0.142c-0.521-0.101-1.045-0.191-1.571-0.272     c-0.203-0.031-0.406-0.056-0.61-0.084c-0.382-0.052-0.764-0.1-1.149-0.141c-0.211-0.023-0.422-0.045-0.634-0.064     c-0.419-0.038-0.839-0.068-1.261-0.094c-0.06-0.004-0.12-0.009-0.181-0.012c-0.155-0.008-0.309-0.016-0.464-0.023     c-0.05-0.002-0.101-0.002-0.151-0.004c-0.532-0.023-1.064-0.038-1.6-0.038c-0.657,0-1.311,0.016-1.962,0.048     c-0.292,0.014-0.58,0.043-0.871,0.063c-0.358,0.025-0.717,0.044-1.073,0.079c-0.37,0.036-0.737,0.088-1.104,0.134     c-0.272,0.034-0.546,0.06-0.817,0.1c-0.43,0.063-0.855,0.143-1.282,0.22c-0.204,0.037-0.411,0.066-0.614,0.106     c-0.478,0.094-0.951,0.205-1.424,0.316c-0.148,0.035-0.297,0.063-0.445,0.1c-0.518,0.128-1.032,0.273-1.544,0.423     c-0.098,0.029-0.198,0.052-0.296,0.082c-0.544,0.163-1.082,0.342-1.617,0.529c0,0,0,0,0,0c0,0,0,0-0.001,0     c-0.002,0.001-0.004,0.001-0.007,0.002c-0.061,0.021-0.123,0.039-0.184,0.061c-0.569,0.201-1.131,0.418-1.689,0.645     c-0.028,0.012-0.057,0.021-0.085,0.033c-0.579,0.238-1.153,0.49-1.72,0.755c-0.007,0.003-0.013,0.006-0.02,0.009     c-0.631,0.295-1.256,0.604-1.872,0.934c-0.238,0.127-0.47,0.268-0.705,0.4c0,0-0.001,0-0.001,0.001     c-0.085,0.048-0.17,0.097-0.255,0.145c-0.525,0.3-1.043,0.613-1.555,0.938c-0.081,0.051-0.161,0.102-0.242,0.153c0,0,0,0,0,0     c-0.364,0.235-0.724,0.476-1.081,0.723c-0.118,0.082-0.235,0.165-0.352,0.248c0,0-0.001,0.001-0.001,0.001     c-0.431,0.305-0.856,0.619-1.276,0.943c-0.012,0.009-0.024,0.019-0.037,0.029l0,0c-0.573,0.443-1.134,0.902-1.685,1.379     c-0.083,0.072-0.167,0.143-0.25,0.216c-0.261,0.229-0.521,0.46-0.777,0.697c-0.305,0.281-0.606,0.568-0.903,0.86l0,0     c-0.076,0.074-0.155,0.144-0.23,0.219l-16.949,16.949l-0.452,0.452l-17.401-17.401c-7.473-7.473-17.408-11.588-27.976-11.588     s-20.503,4.115-27.977,11.588c-0.027,0.027-0.051,0.055-0.078,0.082l0,0c-0.001,0.001-0.001,0.001-0.002,0.002     c-7.671,7.716-11.501,17.832-11.488,27.945c0,0.011,0.001,0.023,0.001,0.034c0.001,0.62,0.016,1.241,0.047,1.86     c0.002,0.033,0.005,0.066,0.007,0.1c0.031,0.598,0.073,1.195,0.13,1.791c0.005,0.05,0.013,0.1,0.018,0.151     c0.058,0.578,0.126,1.156,0.209,1.732c0.012,0.085,0.03,0.169,0.043,0.253c0.082,0.541,0.17,1.082,0.275,1.62     c0.021,0.107,0.048,0.212,0.069,0.318c0.104,0.515,0.213,1.029,0.338,1.541c0.033,0.136,0.075,0.271,0.109,0.407     c0.123,0.48,0.247,0.959,0.388,1.435c0.047,0.158,0.103,0.315,0.152,0.473c0.14,0.451,0.279,0.902,0.435,1.348     c0.065,0.186,0.141,0.368,0.208,0.553c0.152,0.416,0.303,0.832,0.469,1.244c0.085,0.209,0.181,0.414,0.27,0.622     c0.163,0.383,0.322,0.768,0.498,1.146c0.107,0.23,0.227,0.456,0.338,0.685c0.171,0.351,0.338,0.705,0.52,1.052     c0.131,0.249,0.275,0.493,0.412,0.74c0.178,0.321,0.349,0.645,0.536,0.962c0.159,0.268,0.332,0.531,0.497,0.796     c0.18,0.289,0.353,0.581,0.542,0.867c0.185,0.28,0.385,0.554,0.578,0.83c0.184,0.264,0.36,0.531,0.551,0.791     c0.209,0.285,0.434,0.562,0.652,0.843c0.189,0.244,0.371,0.492,0.567,0.732c0.251,0.308,0.519,0.607,0.781,0.91     c0.177,0.205,0.346,0.414,0.529,0.616c0.451,0.5,0.918,0.991,1.399,1.473c0.464,0.464,0.937,0.912,1.418,1.348     c0.216,0.196,0.44,0.381,0.66,0.571c0.263,0.228,0.524,0.459,0.791,0.679c0,0,0.001,0.001,0.001,0.001c0,0,0,0,0,0     c0.299,0.246,0.604,0.478,0.908,0.714c0.19,0.147,0.378,0.298,0.57,0.441c0.001,0.001,0.001,0.001,0.002,0.002l0,0     c0.212,0.158,0.425,0.31,0.639,0.463l0,0c0,0,0.001,0.001,0.001,0.001c0.15,0.107,0.302,0.211,0.454,0.316     c0.136,0.094,0.271,0.192,0.408,0.284c0.414,0.28,0.834,0.547,1.256,0.809c0.091,0.056,0.181,0.114,0.272,0.17     c0.001,0.001,0.003,0.002,0.004,0.003c0,0,0,0,0.001,0c0.43,0.262,0.865,0.514,1.303,0.758c0.143,0.08,0.285,0.161,0.428,0.238     c0.322,0.174,0.646,0.344,0.972,0.509c0.081,0.041,0.162,0.084,0.244,0.124c0.011,0.005,0.022,0.01,0.033,0.016     c0.074,0.037,0.15,0.071,0.225,0.108c0.367,0.179,0.734,0.355,1.105,0.522c0.075,0.034,0.151,0.065,0.227,0.098     c0.606,0.268,1.218,0.521,1.834,0.757c0.22,0.085,0.44,0.169,0.662,0.25c0.062,0.022,0.123,0.047,0.185,0.069     c0.231,0.083,0.462,0.161,0.694,0.239c0.172,0.058,0.344,0.114,0.517,0.17c0.149,0.048,0.298,0.095,0.448,0.141     c0.204,0.063,0.407,0.129,0.612,0.188c0.116,0.034,0.233,0.062,0.349,0.095c0.197,0.055,0.394,0.108,0.591,0.161     c0.176,0.047,0.351,0.096,0.527,0.139c0.159,0.04,0.318,0.077,0.477,0.115c0.144,0.034,0.289,0.066,0.434,0.098     c0.261,0.059,0.522,0.114,0.784,0.168c0.223,0.045,0.445,0.09,0.669,0.132c0.275,0.051,0.551,0.098,0.827,0.143     c0.191,0.031,0.381,0.064,0.573,0.093c0.085,0.013,0.17,0.028,0.255,0.04c0.212,0.03,0.425,0.053,0.637,0.08     c0.201,0.026,0.402,0.053,0.604,0.075c0.133,0.015,0.266,0.028,0.4,0.041c0.17,0.017,0.339,0.03,0.509,0.045     c0.183,0.016,0.365,0.035,0.548,0.048c0.236,0.017,0.472,0.028,0.708,0.042c0.16,0.009,0.321,0.019,0.481,0.026     c0.09,0.004,0.18,0.01,0.269,0.013c0.487,0.018,0.974,0.028,1.461,0.028c2.533,0,5.066-0.241,7.561-0.723     c1.247-0.241,2.486-0.542,3.71-0.904c0.612-0.181,1.22-0.377,1.825-0.588c2.417-0.844,4.768-1.928,7.015-3.254     c0.562-0.331,1.117-0.678,1.665-1.039c2.193-1.446,4.272-3.133,6.201-5.062l17.401-17.401l5.523,5.523l0,0l5.073,5.074     l0.032,0.031l0,0l6.773,6.773c0.482,0.482,0.974,0.949,1.474,1.401c1.501,1.356,3.082,2.576,4.727,3.661     c1.096,0.723,2.221,1.386,3.369,1.988c1.148,0.603,2.32,1.145,3.511,1.627c4.763,1.928,9.829,2.892,14.895,2.892     c0.633,0,1.267-0.015,1.899-0.045c3.574-0.17,7.127-0.832,10.557-1.963l0,0c0,0,0,0,0,0c0.213-0.07,0.428-0.132,0.639-0.206     c0.805-0.281,1.6-0.599,2.389-0.933c0.017-0.007,0.033-0.014,0.05-0.021c0.09-0.038,0.179-0.078,0.269-0.117     c0.288-0.125,0.579-0.242,0.864-0.375c0.233-0.108,0.461-0.229,0.693-0.342c0.081-0.039,0.162-0.077,0.243-0.116     c0.085-0.042,0.17-0.086,0.254-0.129c0.33-0.166,0.658-0.337,0.983-0.513c0.16-0.086,0.319-0.175,0.477-0.264     c0.102-0.057,0.204-0.111,0.305-0.169c0.053-0.03,0.104-0.061,0.157-0.091c0.11-0.063,0.222-0.12,0.331-0.184     c0.111-0.066,0.219-0.139,0.33-0.206c0.058-0.035,0.116-0.068,0.173-0.103c0.221-0.134,0.439-0.274,0.657-0.413     c0.106-0.068,0.214-0.133,0.32-0.202c0.008-0.005,0.017-0.01,0.025-0.016c0.161-0.105,0.319-0.214,0.479-0.322     c0.046-0.031,0.092-0.061,0.137-0.092c0.107-0.073,0.215-0.142,0.321-0.216c0.195-0.136,0.388-0.276,0.582-0.416     c0.115-0.083,0.232-0.163,0.347-0.248c0.006-0.005,0.012-0.009,0.018-0.014c0.201-0.148,0.398-0.302,0.597-0.454     c0.111-0.085,0.224-0.168,0.334-0.255c0.119-0.094,0.237-0.191,0.355-0.287c0.111-0.089,0.221-0.178,0.331-0.268     c0.075-0.062,0.152-0.122,0.227-0.184c0.194-0.162,0.384-0.329,0.576-0.495c0.107-0.092,0.215-0.182,0.321-0.276     c0.056-0.05,0.111-0.102,0.167-0.152c0.081-0.073,0.161-0.147,0.241-0.221c0.065-0.059,0.13-0.118,0.194-0.177     c0.091-0.084,0.184-0.166,0.275-0.251c0.289-0.272,0.576-0.55,0.858-0.833c0.395-0.395,0.778-0.799,1.152-1.209     c0.358-0.389,0.704-0.786,1.044-1.187c0.001-0.001,0.001-0.002,0.002-0.002l0,0c0.993-1.168,1.922-2.379,2.765-3.639     c0.718-1.074,1.381-2.179,1.987-3.312c0.303-0.566,0.592-1.14,0.866-1.72c2.195-4.639,3.468-9.693,3.724-14.934     c0.032-0.655,0.048-1.313,0.048-1.974C337.665,276.874,333.549,266.938,326.077,259.466z M217.867,309.714     c-1.082,0.512-2.201,0.944-3.349,1.291c-2.295,0.695-4.706,1.056-7.172,1.056c-0.366,0-0.73-0.011-1.094-0.027     c-0.063-0.003-0.127-0.007-0.19-0.01c-0.067-0.003-0.133-0.008-0.2-0.012c-0.249-0.015-0.498-0.033-0.745-0.055     c-0.024-0.002-0.047-0.004-0.071-0.006c-0.12-0.011-0.239-0.023-0.358-0.036c-0.249-0.027-0.496-0.057-0.743-0.091     c-0.101-0.014-0.202-0.027-0.303-0.042c-0.071-0.011-0.142-0.023-0.212-0.034c-0.23-0.037-0.46-0.076-0.688-0.119     c-0.154-0.029-0.308-0.059-0.461-0.091c-0.194-0.04-0.387-0.085-0.579-0.13c-0.14-0.033-0.28-0.063-0.419-0.099     c-0.037-0.009-0.073-0.02-0.109-0.029c-0.096-0.025-0.19-0.052-0.286-0.078c-0.077-0.021-0.154-0.042-0.23-0.064v0     c-0.137-0.039-0.272-0.084-0.409-0.125c-0.325-0.097-0.648-0.201-0.969-0.311c-0.161-0.056-0.321-0.113-0.48-0.172     c-0.286-0.106-0.57-0.218-0.852-0.334c-0.144-0.06-0.289-0.116-0.432-0.179c-0.012-0.005-0.025-0.011-0.037-0.016     c-0.387-0.169-0.77-0.348-1.148-0.537c-0.067-0.034-0.134-0.07-0.201-0.105c-0.254-0.13-0.504-0.27-0.754-0.409     c-0.088-0.049-0.177-0.095-0.264-0.145c-0.123-0.071-0.245-0.141-0.367-0.214c-0.236-0.141-0.467-0.29-0.698-0.439     c-0.153-0.098-0.309-0.189-0.46-0.291c-0.003-0.002-0.005-0.004-0.008-0.005c-0.286-0.194-0.563-0.401-0.841-0.608     c-0.098-0.072-0.198-0.14-0.295-0.214c-0.098-0.075-0.196-0.152-0.293-0.229c-0.232-0.183-0.459-0.373-0.685-0.565     c-0.054-0.046-0.109-0.089-0.163-0.135c-0.101-0.087-0.204-0.173-0.303-0.262c-0.36-0.321-0.715-0.65-1.059-0.993     c-4.65-4.65-7.211-10.832-7.211-17.408c0-0.399,0.01-0.796,0.029-1.192c0.006-0.135,0.019-0.269,0.028-0.404     c0.017-0.26,0.032-0.52,0.057-0.778c0.015-0.16,0.037-0.318,0.055-0.477c0.027-0.231,0.052-0.462,0.085-0.692     c0.024-0.17,0.055-0.339,0.083-0.509c0.036-0.216,0.071-0.432,0.112-0.647c0.034-0.175,0.073-0.349,0.11-0.523     c0.044-0.206,0.089-0.412,0.138-0.617c0.043-0.178,0.091-0.355,0.138-0.532c0.053-0.198,0.106-0.395,0.163-0.591     c0.053-0.18,0.109-0.358,0.165-0.536c0.061-0.19,0.123-0.38,0.188-0.569c0.062-0.18,0.127-0.358,0.193-0.536     c0.068-0.184,0.139-0.367,0.212-0.549c0.072-0.179,0.145-0.357,0.221-0.534c0.076-0.178,0.155-0.354,0.235-0.531     c0.081-0.177,0.163-0.354,0.249-0.53c0.083-0.171,0.17-0.341,0.257-0.51c0.091-0.176,0.182-0.352,0.277-0.527     c0.09-0.164,0.184-0.327,0.277-0.489c0.101-0.174,0.201-0.349,0.307-0.521c0.096-0.158,0.197-0.313,0.297-0.469     c0.111-0.172,0.22-0.345,0.336-0.515c0.102-0.15,0.209-0.298,0.315-0.446c0.121-0.17,0.241-0.342,0.366-0.509     c0.107-0.142,0.219-0.281,0.329-0.421c0.133-0.169,0.263-0.339,0.4-0.505c0.107-0.129,0.219-0.254,0.329-0.381     c0.148-0.172,0.294-0.346,0.447-0.514c0.264-0.29,0.535-0.576,0.814-0.855c4.65-4.65,10.832-7.211,17.408-7.211     c6.576,0,12.758,2.561,17.408,7.211l2.711,2.711l-0.001,0l14.685,14.691L230.2,299.381l0.002,0.021l-5.448,5.448     c-0.581,0.581-1.186,1.13-1.813,1.645c-0.313,0.257-0.632,0.507-0.956,0.747C220.688,308.204,219.31,309.031,217.867,309.714z      M296.919,312.021c-5.905-0.281-11.727-2.672-16.226-7.171l-7.739-7.739l-1.629-1.629l-1.471-1.471l-1.731-1.731l-4.838-4.838     l17.408-17.408c0.581-0.581,1.186-1.13,1.813-1.645c0.313-0.257,0.632-0.507,0.956-0.747c4.212-3.128,9.295-4.818,14.638-4.818     c0.001,0,0.003,0,0.004,0c0.463,0,0.923,0.016,1.381,0.043c0.046,0.003,0.091,0.006,0.137,0.009     c0.449,0.029,0.897,0.068,1.341,0.119c0.198,0.023,0.395,0.045,0.592,0.073c0.176,0.025,0.352,0.053,0.528,0.081     c0.198,0.032,0.395,0.066,0.592,0.102c0.187,0.035,0.373,0.072,0.559,0.112c0.18,0.038,0.359,0.078,0.538,0.12     c0.198,0.047,0.395,0.094,0.591,0.145c0.159,0.042,0.316,0.086,0.474,0.131c0.212,0.06,0.423,0.12,0.633,0.186     c0.127,0.04,0.253,0.083,0.379,0.125c0.237,0.078,0.473,0.156,0.707,0.242c0.047,0.017,0.094,0.037,0.141,0.054     c0.167,0.062,0.331,0.129,0.496,0.194c0.319,0.127,0.634,0.261,0.947,0.401c0.062,0.028,0.125,0.055,0.187,0.083     c0.316,0.144,0.629,0.297,0.939,0.455c0.052,0.026,0.105,0.051,0.156,0.078c0.347,0.18,0.69,0.369,1.029,0.565     c0.003,0.001,0.005,0.003,0.008,0.005c0.124,0.073,0.245,0.151,0.369,0.226c0.199,0.12,0.397,0.24,0.593,0.366     c0.195,0.126,0.386,0.257,0.577,0.389c0.117,0.08,0.235,0.16,0.35,0.243c0.214,0.152,0.425,0.309,0.634,0.469     c0.085,0.065,0.169,0.13,0.254,0.195c0.226,0.177,0.45,0.358,0.671,0.543c0.15,0.126,0.299,0.253,0.447,0.382     c0.093,0.082,0.188,0.162,0.28,0.246c0.288,0.262,0.572,0.53,0.85,0.807c0.007,0.007,0.015,0.014,0.022,0.021     c2.035,2.034,3.669,4.362,4.864,6.887c0.171,0.361,0.332,0.726,0.485,1.094c1.221,2.949,1.862,6.138,1.862,9.426     c0,3.288-0.64,6.478-1.862,9.426c-0.153,0.369-0.314,0.733-0.485,1.094c-0.61,1.289-1.34,2.522-2.174,3.695l0,0     c-0.191,0.269-0.388,0.534-0.591,0.797c-0.025,0.033-0.051,0.065-0.076,0.097c-0.182,0.234-0.368,0.465-0.558,0.693     c-0.026,0.031-0.053,0.061-0.08,0.092c-0.216,0.254-0.436,0.505-0.661,0.753c-0.236,0.257-0.476,0.512-0.725,0.761     c-0.347,0.347-0.704,0.677-1.066,0.998c-0.01,0.009-0.02,0.018-0.03,0.027c-0.097,0.086-0.195,0.168-0.293,0.251     c-0.279,0.239-0.561,0.472-0.849,0.697c-0.104,0.082-0.209,0.164-0.314,0.243c-0.337,0.255-0.678,0.501-1.025,0.737     c-0.048,0.032-0.094,0.067-0.142,0.099c-0.387,0.259-0.781,0.504-1.18,0.738c-0.078,0.046-0.155,0.092-0.233,0.137     c-0.147,0.085-0.295,0.166-0.444,0.247c-0.01,0.006-0.02,0.011-0.031,0.017c-0.164,0.09-0.328,0.18-0.494,0.266     c-0.07,0.036-0.142,0.069-0.213,0.105c-0.055,0.028-0.11,0.054-0.165,0.082c-0.364,0.18-0.731,0.351-1.102,0.512     c-0.075,0.033-0.151,0.066-0.226,0.098c-0.023,0.01-0.046,0.02-0.069,0.03c-0.22,0.092-0.442,0.18-0.665,0.265     c-0.089,0.034-0.177,0.067-0.266,0.1c-0.239,0.089-0.479,0.176-0.72,0.257c-0.012,0.004-0.023,0.007-0.035,0.011     c-0.843,0.282-1.699,0.516-2.562,0.704c-0.035,0.008-0.069,0.015-0.104,0.023c-0.283,0.06-0.567,0.117-0.852,0.167l0,0     c-0.653,0.116-1.309,0.211-1.967,0.274c-0.785,0.075-1.573,0.113-2.361,0.113C297.706,312.049,297.312,312.04,296.919,312.021z"></path>							<linearGradient id="SVGID_00000023986948685250740120000002444975068399657120_" gradientUnits="userSpaceOnUse" x1="188.0122" y1="280.8621" x2="367.4477" y2="280.8621" gradientTransform="matrix(1 0 0 1 -25.0444 0)">				<stop offset="0" style="stop-color:#3359FA"></stop>				<stop offset="1" style="stop-color:#5587F6"></stop>			</linearGradient>			<path style="fill:url(#SVGID_00000023986948685250740120000002444975068399657120_);" d="M330.162,310.405     c-7.894,7.894-18.389,12.241-29.553,12.241s-21.659-4.347-29.553-12.241l-18.381-18.381l-18.381,18.381     c-7.894,7.894-18.389,12.241-29.553,12.241c-11.164,0-21.659-4.347-29.553-12.241c-16.295-16.295-16.295-42.81,0-59.105     c8.148-8.148,18.85-12.221,29.552-12.221c10.702,0,21.405,4.074,29.553,12.221l18.381,18.381l18.382-18.381     c8.148-8.148,18.85-12.221,29.552-12.221c10.702,0,21.405,4.074,29.553,12.221c7.894,7.894,12.241,18.389,12.241,29.553     C342.403,292.016,338.056,302.511,330.162,310.405z M223.131,262.464c-4.912-4.912-11.442-7.617-18.389-7.617     c-6.946,0-13.477,2.705-18.389,7.617c-4.912,4.912-7.617,11.442-7.617,18.388c0,6.946,2.705,13.477,7.617,18.389     c4.912,4.912,11.442,7.617,18.388,7.617c6.947,0,13.477-2.705,18.389-7.617l18.389-18.389L223.131,262.464z M241.519,280.852     l-18.389-18.389 M318.998,262.464c-10.139-10.14-26.638-10.14-36.777,0l-18.389,18.389l18.389,18.389     c4.912,4.912,11.442,7.617,18.389,7.617c6.946,0,13.477-2.705,18.388-7.617c4.912-4.912,7.617-11.443,7.617-18.389     C326.615,273.906,323.91,267.375,318.998,262.464z"></path>							<linearGradient id="SVGID_00000115480682452525112640000009738822986122421666_" gradientUnits="userSpaceOnUse" x1="188.1572" y1="262.212" x2="263.7858" y2="262.212" gradientTransform="matrix(1 0 0 1 -25.0444 0)">				<stop offset="0" style="stop-color:#E4A64B"></stop>				<stop offset="0.857" style="stop-color:#F0DB70"></stop>			</linearGradient>			<path style="fill:url(#SVGID_00000115480682452525112640000009738822986122421666_);" d="M204.742,239.078     c-10.702,0-21.405,4.074-29.552,12.221c-7.293,7.293-11.311,16.633-12.076,26.187l7.719,7.86l8.03-7.079     c0.585-5.97,3.193-11.506,7.491-15.803c4.912-4.912,11.443-7.617,18.389-7.617c6.946,0,13.477,2.705,18.389,7.617l6.417,6.417     l9.194-13.134l-4.447-4.447C226.147,243.152,215.444,239.078,204.742,239.078z"></path>							<linearGradient id="SVGID_00000085248148861395484570000014008058481876307895_" gradientUnits="userSpaceOnUse" x1="248.6235" y1="281.6072" x2="304.1086" y2="281.6072" gradientTransform="matrix(1 0 0 1 -25.0444 0)">				<stop offset="0" style="stop-color:#3359FA"></stop>				<stop offset="1" style="stop-color:#5587F6"></stop>			</linearGradient>			<path style="fill:url(#SVGID_00000085248148861395484570000014008058481876307895_);" d="M263.832,280.852l4.51-4.51     l-11.912-10.416l-3.754,3.754l-16.541-16.541l-12.556-0.761l0.658,11.191l17.282,17.282l-1.837,1.837l11.491,10.837l1.503-1.503     l18.381,18.381c0.148,0.148,0.303,0.285,0.452,0.43l7.555-14.751L263.832,280.852z"></path>							<linearGradient id="SVGID_00000129898858781173317720000003339057179469575048_" gradientUnits="userSpaceOnUse" x1="291.972" y1="299.8961" x2="367.4478" y2="299.8961" gradientTransform="matrix(1 0 0 1 -25.0444 0)">				<stop offset="0" style="stop-color:#E4A64B"></stop>				<stop offset="0.857" style="stop-color:#F0DB70"></stop>			</linearGradient>			<path style="fill:url(#SVGID_00000129898858781173317720000003339057179469575048_);" d="M342.234,277.146l-15.619,3.683     c0,0.008,0,0.016,0,0.024c0,6.946-2.705,13.477-7.617,18.389c-4.912,4.912-11.442,7.617-18.388,7.617     c-6.947,0-13.477-2.705-18.389-7.617l-5.194-5.194l-10.099,1.135l1.349,12.443l2.78,2.78c7.894,7.894,18.39,12.241,29.553,12.241     s21.659-4.347,29.553-12.241c7.894-7.894,12.241-18.389,12.241-29.553C342.403,279.607,342.341,278.372,342.234,277.146z"></path>			<polygon style="opacity:0.15;" points="265.732,282.756 254.326,293.635 239.327,278.6 250.67,267.673    "></polygon>							<linearGradient id="SVGID_00000036221847857562172700000006468812894556845497_" gradientUnits="userSpaceOnUse" x1="284.5403" y1="263.0413" x2="367.3687" y2="263.0413" gradientTransform="matrix(1 0 0 1 -25.0444 0)">				<stop offset="0" style="stop-color:#3359FA"></stop>				<stop offset="1" style="stop-color:#5587F6"></stop>			</linearGradient>			<path style="fill:url(#SVGID_00000036221847857562172700000006468812894556845497_);" d="M335.44,287.004l6.884-8.623     c-0.593-10.233-4.854-19.773-12.162-27.082c-8.148-8.147-18.85-12.221-29.553-12.221c-10.703,0-21.405,4.074-29.552,12.221     l-11.561,11.561l13.966,8.361l8.759-8.759c10.139-10.14,26.638-10.14,36.777,0c4.912,4.912,7.617,11.442,7.617,18.389     c0,0.028-0.002,0.056-0.002,0.084L335.44,287.004z"></path>							<linearGradient id="SVGID_00000037660323537986829090000001264414940907541140_" gradientUnits="userSpaceOnUse" x1="253.6384" y1="280.4443" x2="304.1557" y2="280.4443" gradientTransform="matrix(1 0 0 1 -25.0444 0)">				<stop offset="0" style="stop-color:#E4A64B"></stop>				<stop offset="0.857" style="stop-color:#F0DB70"></stop>			</linearGradient>			<polygon style="fill:url(#SVGID_00000037660323537986829090000001264414940907541140_);" points="278.223,266.557      279.111,254.713 266.304,256.053 228.594,293.778 239.051,295.202 238.388,306.175    "></polygon>		</g>		<g>							<linearGradient id="SVGID_00000173883503062115213740000014543940336509518977_" gradientUnits="userSpaceOnUse" x1="178.961" y1="346.1468" x2="224.8469" y2="346.1468">				<stop offset="0" style="stop-color:#8093F9"></stop>				<stop offset="1" style="stop-color:#8CDCFD"></stop>			</linearGradient>			<path style="opacity:0.5;fill:url(#SVGID_00000173883503062115213740000014543940336509518977_);" d="M218.935,352.059h-34.062     c-3.265,0-5.912-2.647-5.912-5.912l0,0c0-3.265,2.647-5.912,5.912-5.912h34.062c3.265,0,5.912,2.647,5.912,5.912v0     C224.847,349.412,222.2,352.059,218.935,352.059z"></path>							<linearGradient id="SVGID_00000086662822415815940040000008222827285731345594_" gradientUnits="userSpaceOnUse" x1="230.0613" y1="346.1468" x2="275.9471" y2="346.1468">				<stop offset="0" style="stop-color:#8093F9"></stop>				<stop offset="1" style="stop-color:#8CDCFD"></stop>			</linearGradient>			<path style="opacity:0.5;fill:url(#SVGID_00000086662822415815940040000008222827285731345594_);" d="M270.035,352.059h-34.062     c-3.265,0-5.912-2.647-5.912-5.912l0,0c0-3.265,2.647-5.912,5.912-5.912h34.062c3.265,0,5.912,2.647,5.912,5.912l0,0     C275.947,349.412,273.3,352.059,270.035,352.059z"></path>							<linearGradient id="SVGID_00000007422218154712379240000006717573799012048304_" gradientUnits="userSpaceOnUse" x1="280.5243" y1="346.1468" x2="326.4102" y2="346.1468">				<stop offset="0" style="stop-color:#8093F9"></stop>				<stop offset="1" style="stop-color:#8CDCFD"></stop>			</linearGradient>			<path style="opacity:0.5;fill:url(#SVGID_00000007422218154712379240000006717573799012048304_);" d="M320.498,352.059h-34.062     c-3.265,0-5.912-2.647-5.912-5.912v0c0-3.265,2.647-5.912,5.912-5.912h34.062c3.265,0,5.912,2.647,5.912,5.912l0,0     C326.41,349.412,323.763,352.059,320.498,352.059z"></path>		</g>	</g>	<g>		<g>							<linearGradient id="SVGID_00000161613654317398893650000001255376255308999097_" gradientUnits="userSpaceOnUse" x1="438.7361" y1="377.046" x2="455.2675" y2="377.046" gradientTransform="matrix(0.9995 -0.0303 0.0303 0.9995 -124.0162 -1.2673)">				<stop offset="0" style="stop-color:#3A49C7"></stop>				<stop offset="1" style="stop-color:#25287B"></stop>			</linearGradient>			<polygon style="fill:url(#SVGID_00000161613654317398893650000001255376255308999097_);" points="342.534,364.614      337.255,370.222 325.84,359.478 331.118,353.87    "></polygon>							<linearGradient id="SVGID_00000031207728630759950460000011665453605585162138_" gradientUnits="userSpaceOnUse" x1="437.3553" y1="404.3767" x2="472.5733" y2="390.5525" gradientTransform="matrix(0.9995 -0.0303 0.0303 0.9995 -124.0162 -1.2673)">				<stop offset="0" style="stop-color:#065BFE"></stop>				<stop offset="0.0885" style="stop-color:#1A6BFE"></stop>				<stop offset="0.4031" style="stop-color:#5EA2FD"></stop>				<stop offset="0.6311" style="stop-color:#88C5FC"></stop>				<stop offset="0.7474" style="stop-color:#98D2FC"></stop>			</linearGradient>			<path style="fill:url(#SVGID_00000031207728630759950460000011665453605585162138_);" d="M369.853,391l-4.606,4.894     c-1.358,1.443-3.628,1.511-5.07,0.154l-26.68-25.111c-1.443-1.358-1.511-3.628-0.154-5.07l4.606-4.894     c1.358-1.443,3.628-1.511,5.07-0.154l26.68,25.111C371.142,387.287,371.21,389.557,369.853,391z"></path>							<linearGradient id="SVGID_00000091729855084241881960000011075369960497236389_" gradientUnits="userSpaceOnUse" x1="243.6724" y1="348.1148" x2="298.1164" y2="348.1148" gradientTransform="matrix(-0.9994 -0.0336 -0.0336 0.9994 593.5441 0.5089)">				<stop offset="0" style="stop-color:#3359FA"></stop>				<stop offset="1" style="stop-color:#5587F6"></stop>			</linearGradient>			<path style="fill:url(#SVGID_00000091729855084241881960000011075369960497236389_);" d="M329.772,319.491     c-10.947-10.304-28.175-9.782-38.478,1.166c-10.304,10.947-9.782,28.175,1.166,38.478c10.947,10.303,28.175,9.782,38.478-1.166     C341.241,347.022,340.719,329.794,329.772,319.491z M326.564,353.853c-8.03,8.532-21.457,8.939-29.988,0.909     c-8.532-8.03-8.939-21.457-0.909-29.989c8.03-8.532,21.457-8.939,29.989-0.909C334.188,331.895,334.594,345.321,326.564,353.853z     "></path>		</g>		<g id="_x3C_Group_x3E__00000161601446279244403620000005063649903354944929_">							<linearGradient id="_x3C_Path_x3E__00000129899925005899547330000007675474485495146670_" gradientUnits="userSpaceOnUse" x1="154.586" y1="361.9951" x2="232.5482" y2="361.9951">				<stop offset="0" style="stop-color:#D39544"></stop>				<stop offset="0.857" style="stop-color:#F0DB70"></stop>			</linearGradient>							<path id="_x3C_Path_x3E__00000128475680291285283490000012116659287718076559_" style="fill:url(#_x3C_Path_x3E__00000129899925005899547330000007675474485495146670_);" d="     M150.354,331.209L150.354,331.209c0-1.257-1.019-2.276-2.277-2.276h-33.112c-1.257,0-2.276,1.019-2.276,2.276v2.276v5.243v54.053     c0,1.257,1.019,2.276,2.276,2.276h73.41c1.257,0,2.276-1.019,2.276-2.276v-57.02c0-1.257-1.019-2.276-2.276-2.276H152.63     C151.373,333.485,150.354,332.466,150.354,331.209z"></path>							<linearGradient id="_x3C_Path_x3E__00000080911639288365002720000004756525748297905282_" gradientUnits="userSpaceOnUse" x1="115.9833" y1="366.416" x2="187.1389" y2="366.416">				<stop offset="0.0617" style="stop-color:#FFFFFF"></stop>				<stop offset="1" style="stop-color:#E0E7EB"></stop>			</linearGradient>							<rect id="_x3C_Path_x3E__00000155141189474686577970000009734210337427479952_" x="115.983" y="337.774" style="fill:url(#_x3C_Path_x3E__00000080911639288365002720000004756525748297905282_);" width="71.156" height="57.284"></rect>							<linearGradient id="_x3C_Path_x3E__00000176746948564496853980000006118578217489797013_" gradientUnits="userSpaceOnUse" x1="112.6888" y1="368.3671" x2="190.651" y2="368.3671">				<stop offset="0" style="stop-color:#E4A64B"></stop>				<stop offset="0.857" style="stop-color:#F0DB70"></stop>			</linearGradient>							<path id="_x3C_Path_x3E__00000087385291777434633800000012882669103021279662_" style="fill:url(#_x3C_Path_x3E__00000176746948564496853980000006118578217489797013_);" d="     M149.543,345.189L149.543,345.189c0,1.94-1.573,3.512-3.512,3.512h-29.83c-1.94,0-3.512,1.573-3.512,3.512v39.333     c0,1.94,1.572,3.512,3.512,3.512h70.938c1.94,0,3.512-1.572,3.512-3.512v-39.567v-3.278v-3.512c0-1.94-1.572-3.512-3.512-3.512     h-34.084C151.116,341.676,149.543,343.249,149.543,345.189z"></path>		</g>	</g>	<g>		<g>							<linearGradient id="SVGID_00000130608457338319406350000002732421474511453872_" gradientUnits="userSpaceOnUse" x1="288.771" y1="62.3372" x2="366.0755" y2="62.3372" gradientTransform="matrix(-1 0 0 -1 727.6735 369.3989)">				<stop offset="0" style="stop-color:#5587F6"></stop>				<stop offset="1" style="stop-color:#3359FA"></stop>			</linearGradient>			<path style="fill:url(#SVGID_00000130608457338319406350000002732421474511453872_);" d="M365.599,277.54h69.303     c2.209,0,4.001,1.791,4.001,4v51.043c0,2.209-1.791,4.001-4.001,4.001h-69.303c-2.209,0-4-1.791-4-4.001V281.54     C361.598,279.331,363.389,277.54,365.599,277.54z"></path>			<g id="_x3C_Path_x3E__00000154408130609511344920000008122073820508267392_">				<g id="_x3C_Path_x3E__00000077293450976976348910000009387040552643701427_">											<linearGradient id="_x3C_Path_x3E__00000010312361502423132390000006031542315027993274_" gradientUnits="userSpaceOnUse" x1="397.5184" y1="307.737" x2="401.7846" y2="307.737">						<stop offset="0" style="stop-color:#D6E5FF"></stop>						<stop offset="0.2471" style="stop-color:#DEEAFF"></stop>						<stop offset="0.8074" style="stop-color:#ECF3FF"></stop>					</linearGradient>											<path id="_x3C_Path_x3E__00000085214017854965993510000009684380244628180896_" style="fill:url(#_x3C_Path_x3E__00000010312361502423132390000006031542315027993274_);" d="       M397.842,312.892c-0.038,0-0.076-0.006-0.114-0.021c-0.167-0.063-0.252-0.249-0.189-0.416l3.619-9.662       c0.063-0.168,0.246-0.255,0.417-0.189c0.167,0.063,0.252,0.249,0.189,0.416l-3.619,9.662       C398.096,312.812,397.973,312.892,397.842,312.892z"></path>				</g>			</g>			<g id="_x3C_Path_x3E__00000021833859251610969190000006866406697490555323_">									<linearGradient id="_x3C_Path_x3E__00000010281762946716526160000014665478554480361093_" gradientUnits="userSpaceOnUse" x1="390.2704" y1="307.8872" x2="396.3945" y2="307.8872">					<stop offset="0" style="stop-color:#D6E5FF"></stop>					<stop offset="0.2471" style="stop-color:#DEEAFF"></stop>					<stop offset="0.8074" style="stop-color:#ECF3FF"></stop>				</linearGradient>									<path id="_x3C_Path_x3E__00000169517968922649190700000016071943755996369584_" style="fill:url(#_x3C_Path_x3E__00000010281762946716526160000014665478554480361093_);" d="      M396.071,310.423c-0.042,0-0.083-0.008-0.124-0.025l-5.564-2.311c-0.149-0.062-0.151-0.273-0.002-0.338l5.488-2.372      c0.163-0.071,0.354,0.004,0.425,0.169c0.071,0.164-0.004,0.354-0.169,0.425l-4.086,1.767c-0.148,0.064-0.147,0.275,0.003,0.337      l4.153,1.725c0.165,0.069,0.243,0.258,0.175,0.423C396.318,310.348,396.198,310.423,396.071,310.423z"></path>			</g>			<g id="_x3C_Path_x3E__00000096769078515079626680000002652112439126689699_">									<linearGradient id="_x3C_Path_x3E__00000094615446408130734120000003962810362342348420_" gradientUnits="userSpaceOnUse" x1="-653.0835" y1="307.8872" x2="-646.9594" y2="307.8872" gradientTransform="matrix(-1 0 0 1 -244.3788 0)">					<stop offset="0" style="stop-color:#D6E5FF"></stop>					<stop offset="0.2471" style="stop-color:#DEEAFF"></stop>					<stop offset="0.8074" style="stop-color:#ECF3FF"></stop>				</linearGradient>									<path id="_x3C_Path_x3E__00000136402710114142824370000018056747156701578648_" style="fill:url(#_x3C_Path_x3E__00000094615446408130734120000003962810362342348420_);" d="      M402.904,310.423c0.042,0,0.083-0.008,0.124-0.025l5.564-2.311c0.149-0.062,0.151-0.273,0.002-0.338l-5.488-2.372      c-0.163-0.071-0.354,0.004-0.425,0.169c-0.071,0.164,0.004,0.354,0.169,0.425l4.086,1.767c0.148,0.064,0.147,0.275-0.002,0.337      l-4.153,1.725c-0.165,0.069-0.243,0.258-0.175,0.423C402.657,310.348,402.777,310.423,402.904,310.423z"></path>			</g>							<linearGradient id="SVGID_00000073701178911809672510000014405345842634043008_" gradientUnits="userSpaceOnUse" x1="380.0942" y1="307.1896" x2="418.5094" y2="307.1896">				<stop offset="0" style="stop-color:#D6E5FF"></stop>				<stop offset="0.306" style="stop-color:#DEEAFF"></stop>				<stop offset="1" style="stop-color:#ECF3FF"></stop>			</linearGradient>			<path style="fill:url(#SVGID_00000073701178911809672510000014405345842634043008_);" d="M417.406,312.03l-1.739-0.809     c-0.758-0.352-1.226-1.15-1.119-1.979c0.147-1.131,0.167-2.286,0.05-3.445c-0.086-0.852,0.443-1.648,1.247-1.941l1.375-0.502     c0.99-0.361,1.499-1.457,1.138-2.447l-0.777-2.128c-0.361-0.99-1.457-1.499-2.447-1.138l-1.771,0.646     c-0.774,0.282-1.627,0.025-2.151-0.61c-0.597-0.723-1.257-1.384-1.967-1.976c-0.626-0.522-0.881-1.365-0.607-2.132l0.851-2.386     c0.354-0.992-0.163-2.084-1.156-2.438l-2.134-0.761c-0.992-0.354-2.084,0.163-2.438,1.156l-0.662,1.856     c-0.294,0.823-1.109,1.349-1.978,1.255c-0.817-0.088-1.646-0.109-2.479-0.061c-0.826,0.048-1.579-0.475-1.863-1.252l-0.568-1.556     c-0.362-0.99-1.457-1.499-2.447-1.138l-2.128,0.777c-0.99,0.361-1.499,1.457-1.138,2.447l0.564,1.546     c0.285,0.782,0.047,1.673-0.619,2.172c-0.502,0.376-0.977,0.782-1.424,1.212c-0.637,0.615-1.621,0.693-2.359,0.204l-1.117-0.739     c-0.879-0.581-2.063-0.341-2.644,0.538l-1.25,1.889c-0.582,0.879-0.341,2.063,0.538,2.644l1.726,1.142     c0.669,0.443,0.973,1.253,0.802,2.036c-0.239,1.096-0.357,2.224-0.345,3.365c0.008,0.823-0.477,1.569-1.25,1.852l-1.772,0.647     c-0.99,0.361-1.5,1.457-1.138,2.447l0.777,2.128c0.361,0.99,1.457,1.499,2.447,1.138l1.375-0.502     c0.805-0.294,1.722-0.026,2.205,0.682c0.654,0.957,1.409,1.823,2.243,2.59c0.613,0.563,0.768,1.472,0.417,2.228l-0.823,1.769     c-0.445,0.955-0.03,2.09,0.925,2.535l2.054,0.956c0.955,0.444,2.09,0.03,2.535-0.925l0.771-1.658     c0.355-0.763,1.169-1.216,2-1.083c1.07,0.172,2.165,0.23,3.267,0.166c0.826-0.048,1.578,0.476,1.862,1.253l0.568,1.555     c0.361,0.99,1.457,1.499,2.447,1.138l2.128-0.777c0.99-0.361,1.499-1.457,1.138-2.447l-0.568-1.556     c-0.284-0.777-0.045-1.662,0.617-2.157c0.879-0.657,1.674-1.401,2.378-2.215c0.55-0.636,1.464-0.813,2.225-0.459l1.643,0.764     c0.955,0.444,2.09,0.03,2.535-0.925l0.956-2.054C418.775,313.609,418.361,312.475,417.406,312.03z M404.013,319.103     c-6.413,2.341-13.51-0.96-15.851-7.373c-2.341-6.413,0.96-13.51,7.373-15.851c6.413-2.341,13.51,0.96,15.85,7.373     C413.727,309.666,410.426,316.762,404.013,319.103z"></path>		</g>		<g>							<linearGradient id="SVGID_00000120531518234230758620000018345521095681028002_" gradientUnits="userSpaceOnUse" x1="425.1268" y1="199.1725" x2="502.4313" y2="199.1725" gradientTransform="matrix(-1 0 0 -1 727.6735 369.3989)">				<stop offset="0" style="stop-color:#5587F6"></stop>				<stop offset="1" style="stop-color:#3359FA"></stop>			</linearGradient>			<path style="fill:url(#SVGID_00000120531518234230758620000018345521095681028002_);" d="M229.243,140.704h69.304     c2.209,0,4,1.791,4,4.001v51.043c0,2.209-1.791,4.001-4,4.001h-69.304c-2.209,0-4.001-1.791-4.001-4.001v-51.043     C225.242,142.495,227.033,140.704,229.243,140.704z"></path>							<linearGradient id="SVGID_00000174591143221931569010000011249978601926167170_" gradientUnits="userSpaceOnUse" x1="246.7743" y1="159.6185" x2="277.6048" y2="159.6185">				<stop offset="0" style="stop-color:#E4A64B"></stop>				<stop offset="0.857" style="stop-color:#F0DB70"></stop>			</linearGradient>							<polyline style="fill:none;stroke:url(#SVGID_00000174591143221931569010000011249978601926167170_);stroke-miterlimit:10;" points="     277.445,158.48 266.693,154.853 256.895,164.397 246.908,161.622    "></polyline>							<linearGradient id="SVGID_00000150799257259276050200000000396845163251730087_" gradientUnits="userSpaceOnUse" x1="255.1723" y1="164.145" x2="258.3277" y2="164.145">				<stop offset="0" style="stop-color:#E4A64B"></stop>				<stop offset="0.857" style="stop-color:#F0DB70"></stop>			</linearGradient>			<path style="fill:url(#SVGID_00000150799257259276050200000000396845163251730087_);" d="M258.319,164.309     c-0.091,0.867-0.867,1.495-1.734,1.404c-0.867-0.091-1.495-0.867-1.404-1.734c0.091-0.867,0.867-1.495,1.733-1.404     C257.781,162.667,258.41,163.443,258.319,164.309z"></path>							<linearGradient id="SVGID_00000167372624346943824560000003006366826566418600_" gradientUnits="userSpaceOnUse" x1="245.1574" y1="161.4575" x2="248.3129" y2="161.4575">				<stop offset="0" style="stop-color:#E4A64B"></stop>				<stop offset="0.857" style="stop-color:#F0DB70"></stop>			</linearGradient>			<path style="fill:url(#SVGID_00000167372624346943824560000003006366826566418600_);" d="M248.304,161.622     c-0.091,0.867-0.867,1.495-1.734,1.404c-0.867-0.091-1.495-0.867-1.404-1.734c0.091-0.866,0.867-1.495,1.734-1.404     S248.395,160.756,248.304,161.622z"></path>							<linearGradient id="SVGID_00000144335398491720827600000010439886064482303616_" gradientUnits="userSpaceOnUse" x1="275.3024" y1="158.48" x2="278.4579" y2="158.48">				<stop offset="0" style="stop-color:#E4A64B"></stop>				<stop offset="0.857" style="stop-color:#F0DB70"></stop>			</linearGradient>			<circle style="fill:url(#SVGID_00000144335398491720827600000010439886064482303616_);" cx="276.88" cy="158.48" r="1.578"></circle>							<linearGradient id="SVGID_00000127021715791203618150000011477977496901175998_" gradientUnits="userSpaceOnUse" x1="265.1151" y1="154.8531" x2="268.2706" y2="154.8531">				<stop offset="0" style="stop-color:#E4A64B"></stop>				<stop offset="0.857" style="stop-color:#F0DB70"></stop>			</linearGradient>			<path style="fill:url(#SVGID_00000127021715791203618150000011477977496901175998_);" d="M268.262,155.018     c-0.091,0.867-0.867,1.495-1.734,1.405c-0.867-0.091-1.495-0.867-1.404-1.734c0.091-0.867,0.867-1.495,1.734-1.404     C267.724,153.375,268.353,154.151,268.262,155.018z"></path>							<linearGradient id="SVGID_00000034785275452933034430000002292944622051131326_" gradientUnits="userSpaceOnUse" x1="274.9806" y1="176.7966" x2="279.6236" y2="176.7966">				<stop offset="0" style="stop-color:#D6E5FF"></stop>				<stop offset="0.2471" style="stop-color:#DEEAFF"></stop>				<stop offset="0.8074" style="stop-color:#ECF3FF"></stop>			</linearGradient>			<path style="fill:url(#SVGID_00000034785275452933034430000002292944622051131326_);" d="M277.302,188.404L277.302,188.404     c-1.282,0-2.322-1.039-2.322-2.322v-18.572c0-1.282,1.039-2.322,2.322-2.322l0,0c1.282,0,2.322,1.039,2.322,2.322v18.572     C279.624,187.365,278.584,188.404,277.302,188.404z"></path>							<linearGradient id="SVGID_00000109735120534363244590000010462637368713199019_" gradientUnits="userSpaceOnUse" x1="265.0407" y1="174.7827" x2="269.6836" y2="174.7827">				<stop offset="0" style="stop-color:#D6E5FF"></stop>				<stop offset="0.2471" style="stop-color:#DEEAFF"></stop>				<stop offset="0.8074" style="stop-color:#ECF3FF"></stop>			</linearGradient>			<path style="fill:url(#SVGID_00000109735120534363244590000010462637368713199019_);" d="M267.362,188.404L267.362,188.404     c-1.282,0-2.322-1.039-2.322-2.322v-22.599c0-1.282,1.039-2.321,2.322-2.321l0,0c1.282,0,2.321,1.039,2.321,2.321v22.599     C269.684,187.365,268.644,188.404,267.362,188.404z"></path>							<linearGradient id="SVGID_00000153693985006626994410000011447869614195466382_" gradientUnits="userSpaceOnUse" x1="254.6157" y1="179.1373" x2="259.2586" y2="179.1373">				<stop offset="0" style="stop-color:#D6E5FF"></stop>				<stop offset="0.2471" style="stop-color:#DEEAFF"></stop>				<stop offset="0.8074" style="stop-color:#ECF3FF"></stop>			</linearGradient>			<path style="fill:url(#SVGID_00000153693985006626994410000011447869614195466382_);" d="M256.937,188.404L256.937,188.404     c-1.282,0-2.322-1.039-2.322-2.322v-13.89c0-1.282,1.039-2.322,2.322-2.322l0,0c1.282,0,2.321,1.039,2.321,2.322v13.89     C259.259,187.365,258.219,188.404,256.937,188.404z"></path>							<linearGradient id="SVGID_00000020376611771088650430000013495160565161835197_" gradientUnits="userSpaceOnUse" x1="244.4779" y1="177.8233" x2="249.1209" y2="177.8233">				<stop offset="0" style="stop-color:#D6E5FF"></stop>				<stop offset="0.2471" style="stop-color:#DEEAFF"></stop>				<stop offset="0.8074" style="stop-color:#ECF3FF"></stop>			</linearGradient>			<path style="fill:url(#SVGID_00000020376611771088650430000013495160565161835197_);" d="M246.799,188.404L246.799,188.404     c-1.282,0-2.322-1.039-2.322-2.322v-16.518c0-1.282,1.039-2.322,2.322-2.322l0,0c1.282,0,2.322,1.039,2.322,2.322v16.518     C249.121,187.365,248.082,188.404,246.799,188.404z"></path>		</g>	</g></g></svg>